 <svg version="1.0" xmlns="http://www.w3.org/2000/svg" width="700.000000pt" height="408.000000pt" viewBox="0 0 700.000000 408.000000" preserveAspectRatio="xMidYMid meet">
<metadata>
Created by potrace 1.12, written by Peter Selinger 2001-2015
</metadata>
<g transform="translate(0.000000,408.000000) scale(0.100000,-0.100000)" fill="#000000" stroke="none">
<path d="M4553 3934 c-2 -6 -3 -31 -1 -55 l3 -44 50 0 50 0 0 50 0 50 -49 6
c-32 3 -50 1 -53 -7z m84 -30 c9 -24 -10 -49 -38 -49 -24 0 -36 23 -25 51 7
19 55 18 63 -2z"></path>
<path d="M5194 3787 c-3 -8 -4 -34 -2 -58 l3 -44 55 1 55 0 0 55 0 54 -53 3
c-38 2 -54 -1 -58 -11z m81 -42 c0 -22 -31 -33 -48 -16 -7 7 -6 15 3 26 17 21
45 15 45 -10z"></path>
<path d="M5844 3707 c-3 -8 -4 -34 -2 -58 l3 -44 55 0 55 0 0 55 0 55 -53 3
c-38 2 -54 -1 -58 -11z m81 -47 c0 -18 -6 -26 -23 -28 -13 -2 -25 3 -28 12
-10 26 4 48 28 44 17 -2 23 -10 23 -28z"></path>
<path d="M6624 3607 c-3 -8 -4 -34 -2 -58 l3 -44 55 0 55 0 0 55 0 55 -53 3
c-38 2 -54 -1 -58 -11z"></path>
<path d="M914 3597 c-3 -8 -4 -34 -2 -58 l3 -44 55 0 55 0 0 55 0 55 -53 3
c-38 2 -54 -1 -58 -11z m74 -50 c4 -20 -25 -34 -40 -19 -15 15 -1 44 19 40 10
-2 19 -11 21 -21z"></path>
<path d="M3770 3566 c-3 -2 -3 -30 -2 -61 l4 -56 51 3 52 3 0 55 0 55 -50 3
c-28 2 -53 1 -55 -2z m85 -56 c0 -20 -6 -26 -28 -28 -18 -2 -29 2 -33 12 -11
28 4 48 33 44 22 -2 28 -8 28 -28z"></path>
<path d="M2344 3516 c-3 -8 -4 -31 -2 -52 l3 -39 53 -3 c40 -2 54 1 58 13 9
22 -2 30 -20 16 -8 -7 -27 -11 -43 -9 -21 2 -29 9 -31 27 -2 13 1 28 7 34 16
16 14 27 -4 27 -9 0 -18 -6 -21 -14z"></path>
<path d="M2410 3521 c0 -5 7 -12 16 -15 22 -9 24 -8 24 9 0 8 -9 15 -20 15
-11 0 -20 -4 -20 -9z"></path>
<path d="M1560 3425 l0 -55 60 0 60 0 0 55 0 55 -60 0 -60 0 0 -55z m77 9 c8
-21 -13 -42 -28 -27 -13 13 -5 43 11 43 6 0 13 -7 17 -16z"></path>
<path d="M4934 3437 c-3 -8 -4 -34 -2 -58 l3 -44 55 0 55 0 0 55 0 55 -53 3
c-38 2 -54 -1 -58 -11z m86 -22 c26 -32 -13 -81 -47 -59 -35 22 -23 74 17 74
10 0 23 -7 30 -15z"></path>
<path d="M4154 3297 c-3 -8 -4 -34 -2 -58 l3 -44 55 0 55 0 0 55 0 55 -53 3
c-38 2 -54 -1 -58 -11z m81 -47 c0 -18 -6 -26 -23 -28 -13 -2 -25 3 -28 12
-10 26 4 48 28 44 17 -2 23 -10 23 -28z"></path>
<path d="M133 3274 c-2 -7 -3 -31 -1 -55 l3 -44 58 -3 58 -3 -3 57 -3 56 -54
2 c-32 0 -55 -4 -58 -10z m82 -49 c0 -22 -31 -33 -47 -17 -17 17 -1 44 24 40
15 -2 23 -10 23 -23z"></path>
<path d="M3124 3247 c-3 -8 -4 -34 -2 -58 l3 -44 54 0 54 0 0 55 0 55 -52 3
c-37 2 -53 -1 -57 -11z m74 -44 c5 -17 -26 -29 -40 -15 -6 6 -7 15 -3 22 9 14
37 9 43 -7z"></path>
<path d="M5454 3237 c-3 -8 -4 -34 -2 -58 l3 -44 55 0 55 0 0 55 0 55 -53 3
c-38 2 -54 -1 -58 -11z m84 -45 c4 -28 -24 -40 -45 -19 -21 21 -9 49 19 45 15
-2 24 -11 26 -26z"></path>
<path d="M6104 3147 c-3 -8 -4 -34 -2 -58 l3 -44 55 0 55 0 0 55 0 55 -53 3
c-38 2 -54 -1 -58 -11z m81 -47 c0 -18 -6 -26 -23 -28 -13 -2 -25 3 -28 12
-10 26 4 48 28 44 17 -2 23 -10 23 -28z"></path>
<path d="M0 2986 c0 -10 13 -16 43 -18 41 -3 42 -4 42 -38 0 -24 5 -35 15 -35
11 0 15 12 15 50 l0 50 -57 3 c-46 2 -58 0 -58 -12z"></path>
<path d="M1044 2987 c-3 -8 -4 -34 -2 -58 l3 -44 55 0 55 0 0 55 0 55 -53 3
c-38 2 -54 -1 -58 -11z m81 -47 c0 -18 -6 -26 -23 -28 -24 -4 -38 18 -28 44 3
9 15 14 28 12 17 -2 23 -10 23 -28z"></path>
<path d="M1564 2987 c-3 -8 -4 -34 -2 -58 l3 -44 55 0 55 0 0 55 0 55 -53 3
c-38 2 -54 -1 -58 -11z m74 -40 c4 -21 -25 -34 -40 -19 -8 8 -8 16 2 27 16 19
34 15 38 -8z"></path>
<path d="M1824 2987 c-3 -8 -4 -34 -2 -58 l3 -44 55 0 55 0 0 55 0 55 -53 3
c-38 2 -54 -1 -58 -11z m81 -47 c0 -18 -6 -26 -23 -28 -24 -4 -38 18 -28 44 3
9 15 14 28 12 17 -2 23 -10 23 -28z"></path>
<path d="M2344 2987 c-3 -8 -4 -34 -2 -58 l3 -44 55 0 54 0 -1 55 -1 55 -51 3
c-37 2 -53 -1 -57 -11z m81 -47 c0 -18 -6 -26 -23 -28 -24 -4 -38 18 -28 44 3
9 15 14 28 12 17 -2 23 -10 23 -28z"></path>
<path d="M2604 2987 c-3 -8 -4 -34 -2 -58 l3 -44 55 0 55 0 0 55 0 55 -53 3
c-38 2 -54 -1 -58 -11z m81 -47 c0 -18 -6 -26 -23 -28 -13 -2 -25 3 -28 12
-10 26 4 48 28 44 17 -2 23 -10 23 -28z"></path>
<path d="M3510 2940 l0 -61 53 3 52 3 0 55 0 55 -52 3 -53 3 0 -61z m85 0 c0
-20 -6 -26 -28 -28 -18 -2 -29 2 -33 12 -11 28 4 48 33 44 22 -2 28 -8 28 -28z"></path>
<path d="M4284 2987 c-3 -8 -4 -34 -2 -58 l3 -44 55 0 55 0 0 55 0 55 -53 3
c-38 2 -54 -1 -58 -11z m84 -19 c17 -17 15 -43 -4 -59 -31 -26 -70 25 -44 56
15 18 32 19 48 3z"></path>
<path d="M5844 2987 c-3 -8 -4 -34 -2 -58 l3 -44 55 0 55 0 0 55 0 55 -53 3
c-38 2 -54 -1 -58 -11z m81 -47 c0 -18 -6 -26 -23 -28 -13 -2 -25 3 -28 12
-10 26 4 48 28 44 17 -2 23 -10 23 -28z"></path>
<path d="M6494 2987 c-3 -8 -4 -34 -2 -58 l3 -44 55 0 55 0 0 55 0 55 -53 3
c-38 2 -54 -1 -58 -11z"></path>
<path d="M6754 2987 c-3 -8 -4 -34 -2 -58 l3 -44 55 0 55 0 0 55 0 55 -53 3
c-38 2 -54 -1 -58 -11z m66 -47 c0 -5 -4 -10 -10 -10 -5 0 -10 5 -10 10 0 6 5
10 10 10 6 0 10 -4 10 -10z"></path>
<path d="M393 2864 c-2 -7 -3 -31 -1 -55 l3 -44 55 0 55 0 0 54 0 53 -54 2
c-32 0 -55 -4 -58 -10z m74 -40 c8 -21 -13 -42 -28 -27 -13 13 -5 43 11 43 6
0 13 -7 17 -16z"></path>
<path d="M1303 2864 c-2 -7 -3 -31 -1 -55 l3 -44 55 0 55 0 0 54 0 53 -54 2
c-32 0 -55 -4 -58 -10z m75 -47 c4 -20 -25 -34 -40 -19 -15 15 -1 44 19 40 10
-2 19 -11 21 -21z"></path>
<path d="M2214 2869 c-9 -15 1 -279 11 -276 5 2 9 14 7 25 -3 20 1 22 42 22
l45 0 0 98 c0 54 3 105 6 114 5 13 -3 17 -50 20 -31 1 -59 0 -61 -3z m74 -52
c4 -20 -25 -34 -40 -19 -15 15 -1 44 19 40 10 -2 19 -11 21 -21z m12 -67 c0
-5 -16 -10 -35 -10 -19 0 -35 5 -35 10 0 6 16 10 35 10 19 0 35 -4 35 -10z
m-12 -53 c4 -20 -25 -34 -40 -19 -15 15 -1 44 19 40 10 -2 19 -11 21 -21z"></path>
<path d="M2777 2873 l-48 -4 3 -52 3 -52 54 0 53 0 2 54 c1 59 2 59 -67 54z
m31 -56 c4 -20 -25 -34 -40 -19 -15 15 -1 44 19 40 10 -2 19 -11 21 -21z"></path>
<path d="M5324 2867 c-3 -8 -4 -34 -2 -58 l3 -44 55 0 55 0 3 53 3 52 -40 0
c-21 0 -46 3 -55 6 -9 4 -18 0 -22 -9z m81 -52 c0 -22 -31 -33 -47 -17 -17 17
-1 44 24 40 15 -2 23 -10 23 -23z"></path>
<path d="M5585 2870 c-3 -5 -3 -59 1 -120 5 -81 10 -110 20 -110 10 0 12 9 8
29 -7 34 15 91 35 91 7 0 11 -6 8 -15 -4 -8 -2 -17 3 -20 6 -3 9 -28 8 -55
l-2 -49 -41 -3 -40 -3 1 -61 1 -61 -61 1 -61 1 0 -50 0 -50 50 0 50 0 3 38 c4
50 22 48 22 -3 0 -33 3 -40 20 -40 21 0 27 14 11 24 -5 4 -9 45 -9 92 0 68 3
87 15 91 24 9 48 -12 45 -38 -4 -37 -4 -41 2 -86 4 -29 1 -45 -9 -53 -26 -21
-17 -27 40 -27 52 0 68 8 44 22 -6 4 -9 21 -7 38 3 28 0 32 -22 32 -14 0 -26
6 -28 16 -2 13 8 15 65 15 l68 -1 0 50 0 50 -65 -1 -65 0 0 76 0 76 65 0 65
-1 3 52 3 53 -111 -1 c-60 0 -114 2 -119 6 -5 3 -12 1 -16 -5z m91 -45 c8 -20
-13 -45 -38 -45 -21 0 -33 22 -24 45 7 20 55 19 62 0z m119 -10 c0 -22 -31
-33 -47 -17 -17 17 -1 44 24 40 15 -2 23 -10 23 -23z m-75 0 c0 -8 -4 -15 -10
-15 -5 0 -10 7 -10 15 0 8 5 15 10 15 6 0 10 -7 10 -15z m75 -255 c0 -18 -6
-26 -23 -28 -24 -4 -38 18 -28 44 3 9 15 14 28 12 17 -2 23 -10 23 -28z m-250
-120 c0 -20 -6 -26 -28 -28 -18 -2 -29 2 -33 12 -11 28 4 48 33 44 22 -2 28
-8 28 -28z m175 5 c0 -14 -4 -25 -10 -25 -5 0 -10 11 -10 25 0 14 5 25 10 25
6 0 10 -11 10 -25z"></path>
<path d="M6105 2870 c-2 -3 -3 -56 -3 -118 l-1 -112 56 0 c39 0 53 4 50 13 -2
7 -16 11 -35 9 -37 -4 -52 19 -34 49 7 10 9 25 6 34 -4 10 0 15 14 15 12 0 22
-9 25 -21 8 -29 25 -15 20 15 -4 19 -12 26 -37 28 -26 2 -31 7 -31 28 0 21 6
26 34 30 55 8 49 28 -9 32 -29 1 -53 1 -55 -2z"></path>
<path d="M6233 2864 c-2 -7 -3 -31 -1 -55 l3 -44 48 -3 c63 -4 60 -22 -4 -22
l-52 0 5 -62 5 -63 -142 0 -141 0 0 65 1 65 -53 3 c-39 2 -54 -1 -58 -12 -3
-8 -2 -64 3 -123 10 -113 6 -134 -26 -126 -21 5 -37 -12 -21 -22 15 -9 12 -45
-5 -51 -34 -13 -10 -20 71 -22 78 -2 86 0 91 18 7 26 23 26 23 -1 0 -18 5 -20
53 -17 l52 3 1 60 c2 118 4 135 13 135 6 0 11 -17 13 -37 l3 -38 50 0 50 0 3
38 c2 29 7 37 18 33 14 -5 18 4 14 37 -1 15 5 18 32 15 28 -2 34 -7 36 -30 2
-16 7 -28 13 -28 10 0 10 -2 12 169 l2 125 -54 0 c-31 1 -55 -4 -58 -10z
m-305 -172 c2 -13 -2 -30 -8 -38 -9 -10 -9 -14 -1 -14 6 0 11 -4 11 -10 0 -5
-13 -10 -28 -10 -26 0 -28 3 -29 42 -2 51 3 60 30 56 14 -2 23 -11 25 -26z
m367 -12 c-5 -8 -11 -8 -17 -2 -6 6 -7 16 -3 22 5 8 11 8 17 2 6 -6 7 -16 3
-22z m-365 -95 c7 -9 9 -23 4 -37 -5 -13 -8 -48 -9 -78 0 -52 -1 -55 -25 -55
-18 0 -26 6 -28 23 -2 13 2 30 8 38 8 9 9 19 3 27 -11 15 -17 73 -8 87 9 15
41 12 55 -5z m50 -25 c0 -48 17 -54 22 -7 3 28 6 32 33 32 28 0 30 -2 31 -42
1 -46 -3 -48 -58 -44 -22 2 -28 -2 -28 -18 0 -26 -16 -28 -23 -2 -7 27 4 121
14 121 5 0 9 -18 9 -40z m205 5 c0 -25 -4 -30 -25 -30 -16 0 -26 6 -28 18 -6
30 6 49 30 45 18 -2 23 -9 23 -33z m-135 -100 c17 -20 5 -45 -20 -45 -11 0
-23 7 -26 15 -6 15 11 45 26 45 4 0 13 -7 20 -15z"></path>
<path d="M0 2815 l0 -55 50 0 c28 0 50 -4 50 -10 0 -5 -22 -10 -50 -10 -37 0
-50 -4 -50 -14 0 -10 13 -16 38 -18 51 -4 51 -32 -1 -36 -24 -2 -37 -8 -37
-18 0 -10 13 -14 50 -14 28 0 50 -4 50 -10 0 -5 -22 -10 -50 -10 -61 0 -67
-18 -7 -22 38 -3 43 -6 52 -35 12 -43 25 -42 25 2 0 53 20 42 21 -12 1 -27 2
-73 3 -103 l1 -55 180 0 180 0 0 110 0 110 -68 -1 c-65 -1 -68 0 -63 20 3 12
6 33 6 49 0 15 5 27 10 27 6 0 10 -16 10 -36 l0 -35 53 3 c51 3 52 4 55 36 4
43 22 41 22 -3 0 -35 0 -35 45 -35 25 0 45 -4 45 -10 0 -5 -20 -10 -44 -10
l-45 0 0 -116 0 -115 52 3 52 3 -1 63 c-1 46 3 62 13 62 15 0 15 -3 13 -83
l-1 -59 58 5 c32 3 83 7 113 9 l55 3 3 48 c2 35 0 47 -11 47 -21 0 -28 -12
-16 -26 14 -18 -7 -56 -29 -52 -12 2 -17 14 -17 38 -1 33 -3 35 -35 37 -50 3
-65 -4 -50 -22 15 -18 6 -45 -13 -45 -23 0 -41 28 -28 43 8 10 7 17 -1 25 -20
20 -2 24 102 24 l100 -1 0 40 c0 21 5 39 10 39 10 0 12 -17 14 -135 l1 -60
138 -1 c76 0 140 3 142 6 2 3 -1 12 -6 20 -8 12 -12 12 -16 3 -10 -26 -23 -12
-21 25 1 20 0 42 -1 47 -7 22 0 85 8 85 6 0 11 -15 13 -32 3 -32 4 -33 56 -36
l53 -3 -3 53 -3 53 -42 3 c-57 4 -55 20 3 24 l47 3 1 50 1 50 -55 0 -55 0 1
-66 0 -65 -65 0 -66 1 1 -63 c1 -53 -2 -62 -15 -60 -13 3 -15 15 -12 67 l3 64
-64 -5 -64 -5 0 66 1 66 -55 0 -55 0 1 -65 0 -65 -76 0 -76 0 0 65 1 65 -261
0 -261 0 5 63 5 62 -62 0 -61 0 0 -55z m270 -150 c0 -44 -3 -55 -16 -55 -12 0
-15 6 -10 23 3 12 6 37 6 55 0 17 5 32 10 32 6 0 10 -25 10 -55z m205 25 c0
-18 -6 -26 -23 -28 -13 -2 -25 3 -28 12 -10 26 4 48 28 44 17 -2 23 -10 23
-28z m125 15 c17 -20 5 -45 -20 -45 -11 0 -23 7 -26 15 -6 15 11 45 26 45 4 0
13 -7 20 -15z m648 -9 c6 -29 -15 -43 -35 -24 -14 14 -14 20 -3 33 16 19 34
15 38 -9z m-912 3 c10 -17 -13 -36 -27 -22 -12 12 -4 33 11 33 5 0 12 -5 16
-11z m521 -5 c8 -21 -13 -42 -28 -27 -13 13 -5 43 11 43 6 0 13 -7 17 -16z
m-717 -69 c0 -8 -7 -15 -15 -15 -8 0 -15 7 -15 15 0 8 7 15 15 15 8 0 15 -7
15 -15z m70 5 c0 -5 -9 -10 -20 -10 -11 0 -20 5 -20 10 0 6 9 10 20 10 11 0
20 -4 20 -10z m130 0 c0 -5 -11 -10 -25 -10 -14 0 -25 5 -25 10 0 6 11 10 25
10 14 0 25 -4 25 -10z m540 0 c0 -5 -16 -10 -35 -10 -19 0 -35 5 -35 10 0 6
16 10 35 10 19 0 35 -4 35 -10z m-480 -51 c0 -5 -4 -9 -10 -9 -5 0 -10 7 -10
16 0 8 5 12 10 9 6 -3 10 -10 10 -16z m200 6 c19 -23 8 -50 -20 -50 -16 0 -26
6 -28 18 -4 18 14 47 28 47 4 0 13 -7 20 -15z m-393 -11 c8 -21 -13 -42 -28
-27 -13 13 -5 43 11 43 6 0 13 -7 17 -16z m63 -34 l0 -50 -50 0 c-58 0 -68 17
-12 22 35 3 37 5 40 41 5 55 22 45 22 -13z m65 17 c1 -14 4 -29 8 -33 15 -15
6 -24 -23 -24 -29 0 -40 13 -20 25 5 3 7 12 3 20 -7 21 5 47 20 42 6 -2 12
-16 12 -30z m142 17 c7 -19 -20 -49 -36 -40 -12 8 -15 39 -4 49 12 12 33 7 40
-9z m253 0 c11 -12 11 -18 -2 -31 -19 -18 -38 -10 -38 16 0 33 20 40 40 15z
m125 -14 c0 -16 -6 -26 -18 -28 -19 -4 -32 20 -23 44 9 25 41 13 41 -16z m141
15 c4 -8 3 -23 -2 -32 -4 -10 -6 -24 -5 -30 1 -8 -8 -13 -22 -13 -20 0 -23 5
-24 37 -1 21 1 41 4 45 8 14 43 8 49 -7z m124 0 c10 -12 10 -18 0 -30 -25 -30
-61 -7 -46 30 3 8 12 15 19 15 8 0 20 -7 27 -15z m134 -1 c7 -19 -10 -44 -31
-44 -17 0 -27 24 -19 45 7 20 42 19 50 -1z m-850 -75 c-8 -14 -34 -11 -34 4 0
8 3 17 7 20 9 9 34 -13 27 -24z m193 -4 c-4 -8 -2 -17 3 -20 16 -10 12 -55 -5
-61 -26 -10 -44 15 -42 57 1 34 4 39 25 39 17 0 22 -4 19 -15z m515 -19 c14
-29 14 -37 3 -52 -11 -15 -15 -16 -29 -5 -18 15 -21 46 -6 56 5 3 7 12 3 20
-11 30 12 14 29 -19z m-124 -20 c2 -10 -1 -23 -8 -30 -17 -17 -44 22 -28 41
14 17 32 12 36 -11z m-778 -11 c0 -19 -20 -29 -32 -17 -15 15 -2 43 17 36 8
-3 15 -12 15 -19z m257 9 c8 -21 -13 -42 -28 -27 -13 13 -5 43 11 43 6 0 13
-7 17 -16z m-132 -3 c7 -12 -12 -24 -25 -16 -11 7 -4 25 10 25 5 0 11 -4 15
-9z m705 -11 c0 -11 -4 -20 -10 -20 -5 0 -10 9 -10 20 0 11 5 20 10 20 6 0 10
-9 10 -20z m-784 -27 c-11 -11 -19 6 -11 24 8 17 8 17 12 0 3 -10 2 -21 -1
-24z"></path>
<path d="M3647 2863 c-3 -4 -5 -56 -5 -115 l-1 -108 54 0 54 0 -2 113 -2 112
-47 3 c-25 2 -48 -1 -51 -5z m73 -28 c13 -16 5 -71 -12 -81 -24 -15 -62 69
-41 89 11 12 40 8 53 -8z m4 -127 c13 -22 -14 -54 -38 -45 -16 6 -22 48 -9 61
11 11 35 3 47 -16z"></path>
<path d="M4032 2818 l3 -53 50 0 50 0 0 50 0 50 -53 3 -53 3 3 -53z m83 -3 c0
-27 -3 -30 -30 -30 -21 0 -31 5 -33 18 -6 33 6 49 35 45 24 -3 28 -8 28 -33z"></path>
<path d="M4930 2823 c0 -26 5 -55 10 -63 11 -17 10 -19 13 50 2 33 4 35 37 35
l35 0 1 -55 c3 -167 6 -195 14 -166 5 15 8 76 7 135 l-2 106 -57 3 -58 3 0
-48z"></path>
<path d="M5070 2857 c0 -10 12 -13 43 -13 40 1 42 0 42 -29 0 -25 -4 -30 -28
-33 -16 -2 -35 2 -44 9 -13 11 -15 10 -12 -6 4 -17 12 -20 54 -20 l50 0 0 50
0 50 -52 3 c-40 2 -53 0 -53 -11z"></path>
<path d="M1434 2737 c-3 -8 -4 -34 -2 -58 l3 -44 55 0 55 0 0 55 0 55 -53 3
c-38 2 -54 -1 -58 -11z m74 -41 c6 -29 -15 -43 -35 -24 -14 14 -14 20 -3 33
16 19 34 15 38 -9z"></path>
<path d="M1694 2737 c-3 -8 -4 -34 -2 -58 l3 -44 55 0 55 0 0 55 0 55 -53 3
c-38 2 -54 -1 -58 -11z m74 -44 c5 -17 -26 -29 -40 -15 -6 6 -7 15 -3 22 9 14
37 9 43 -7z"></path>
<path d="M2085 2738 c-2 -7 -3 -60 -2 -118 l2 -105 115 0 115 0 0 49 c0 27 -5
51 -11 53 -7 2 -10 -12 -10 -39 1 -38 -2 -43 -22 -46 -13 -2 -30 2 -39 10 -13
10 -17 10 -20 1 -10 -29 -23 -10 -23 32 l0 45 -44 0 -45 0 5 38 c9 63 11 65
50 59 29 -5 35 -3 32 11 -4 22 -96 31 -103 10z m72 -164 c3 -8 1 -20 -6 -27
-14 -14 -47 15 -37 32 10 16 36 13 43 -5z"></path>
<path d="M2347 2744 c-14 -14 5 -22 39 -17 30 5 36 3 41 -16 8 -31 25 -26 21
7 -3 24 -7 27 -48 30 -25 2 -49 0 -53 -4z"></path>
<path d="M2604 2737 c-3 -8 -4 -32 -2 -53 l3 -39 50 0 50 0 0 50 0 50 -48 3
c-34 2 -49 -1 -53 -11z m71 -47 c0 -16 -6 -26 -18 -28 -19 -4 -32 20 -23 44 9
25 41 13 41 -16z"></path>
<path d="M2867 2744 c-16 -16 -5 -22 34 -17 35 5 41 3 46 -16 8 -31 25 -26 21
7 -3 24 -7 27 -48 30 -25 2 -49 0 -53 -4z"></path>
<path d="M2997 2744 c-10 -10 -9 -54 2 -54 5 0 11 9 14 21 4 16 12 20 34 17
25 -3 28 -7 31 -45 2 -24 8 -43 13 -43 6 0 9 22 7 53 l-3 52 -45 3 c-25 2 -49
0 -53 -4z"></path>
<path d="M3257 2744 c-10 -11 -9 -102 2 -109 6 -3 11 16 13 42 3 44 5 48 31
51 18 2 29 -2 33 -12 9 -24 26 -19 22 7 -3 19 -10 22 -48 25 -25 2 -49 0 -53
-4z"></path>
<path d="M3387 2744 c-10 -10 -9 -44 2 -44 5 0 12 7 15 16 4 11 16 15 41 13
19 -2 36 1 37 6 3 12 -84 19 -95 9z"></path>
<path d="M3515 2740 c-3 -5 3 -10 14 -10 12 0 21 5 21 10 0 6 -6 10 -14 10 -8
0 -18 -4 -21 -10z"></path>
<path d="M3774 2735 c-9 -22 1 -28 25 -15 28 15 61 -3 61 -34 0 -12 -3 -26 -7
-30 -11 -11 -14 -48 -4 -60 5 -6 9 -55 8 -109 -1 -61 2 -96 8 -94 6 2 10 71
10 178 l0 174 -48 3 c-36 2 -49 -1 -53 -13z"></path>
<path d="M3904 2737 c-3 -8 -4 -34 -2 -58 l3 -44 50 0 50 0 0 55 0 55 -48 3
c-34 2 -49 -1 -53 -11z m83 -33 c8 -22 -10 -49 -32 -49 -10 0 -22 7 -28 16
-15 24 -1 49 28 49 15 0 28 -7 32 -16z"></path>
<path d="M4287 2743 c-3 -4 -4 -30 -2 -58 l3 -50 54 0 53 0 0 55 0 55 -52 3
c-28 2 -53 -1 -56 -5z m81 -25 c17 -17 15 -43 -4 -59 -31 -26 -70 25 -44 56
15 18 32 19 48 3z"></path>
<path d="M4427 2744 c-9 -9 -9 -44 0 -44 3 0 15 8 25 17 15 13 23 15 36 6 14
-8 17 -27 18 -94 1 -46 -3 -90 -9 -97 -12 -16 -3 -26 17 -19 12 5 14 27 13
119 l-2 113 -45 3 c-25 2 -49 0 -53 -4z"></path>
<path d="M4678 2743 c-8 -14 4 -103 12 -103 5 0 10 19 12 43 3 39 5 42 33 42
28 0 30 -3 33 -42 2 -24 8 -43 13 -43 6 0 9 22 7 53 l-3 52 -52 3 c-28 2 -53
-1 -55 -5z"></path>
<path d="M4813 2735 c-7 -21 4 -32 19 -17 15 15 55 16 64 1 4 -7 10 -7 16 -1
18 18 -2 32 -48 32 -31 0 -46 -5 -51 -15z"></path>
<path d="M5197 2744 c-4 -4 -7 -29 -7 -56 l0 -49 58 3 57 3 0 50 0 50 -50 3
c-28 2 -54 0 -58 -4z m78 -54 c0 -18 -6 -26 -23 -28 -13 -2 -25 3 -28 12 -10
26 4 48 28 44 17 -2 23 -10 23 -28z"></path>
<path d="M5454 2737 c-3 -8 -4 -34 -2 -58 l3 -44 55 0 55 0 0 55 0 55 -53 3
c-38 2 -54 -1 -58 -11z m91 -47 c0 -20 -6 -26 -28 -28 -18 -2 -29 2 -33 12
-11 28 4 48 33 44 22 -2 28 -8 28 -28z"></path>
<path d="M6494 2736 c-3 -8 -4 -33 -2 -57 l3 -44 120 0 120 0 0 55 0 55 -118
2 c-91 2 -119 -1 -123 -11z m66 -41 c0 -8 -4 -15 -9 -15 -13 0 -22 16 -14 24
11 11 23 6 23 -9z m130 -5 c0 -5 -4 -10 -10 -10 -5 0 -10 5 -10 10 0 6 5 10
10 10 6 0 10 -4 10 -10z"></path>
<path d="M2170 2654 c0 -8 5 -12 10 -9 6 3 10 10 10 16 0 5 -4 9 -10 9 -5 0
-10 -7 -10 -16z"></path>
<path d="M2425 2661 c-6 -11 9 -23 19 -14 9 9 7 23 -3 23 -6 0 -12 -4 -16 -9z"></path>
<path d="M4422 2595 c-2 -60 1 -77 13 -82 22 -8 30 4 16 21 -7 8 -12 30 -10
48 3 52 0 88 -9 88 -4 0 -9 -34 -10 -75z"></path>
<path d="M4812 2653 c2 -13 15 -19 47 -21 46 -3 68 8 56 28 -5 8 -10 9 -18 1
-14 -14 -54 -14 -62 -1 -10 17 -27 11 -23 -7z"></path>
<path d="M2950 2650 c0 -5 5 -10 10 -10 6 0 10 5 10 10 0 6 -4 10 -10 10 -5 0
-10 -4 -10 -10z"></path>
<path d="M2990 2650 c0 -5 5 -10 10 -10 6 0 10 5 10 10 0 6 -4 10 -10 10 -5 0
-10 -4 -10 -10z"></path>
<path d="M3774 2625 c0 -19 4 -34 10 -32 6 2 10 16 10 32 0 16 -4 30 -10 32
-6 2 -10 -13 -10 -32z"></path>
<path d="M3520 2640 c0 -5 5 -10 10 -10 6 0 10 5 10 10 0 6 -4 10 -10 10 -5 0
-10 -4 -10 -10z"></path>
<path d="M4770 2623 c-4 -76 0 -223 7 -223 12 0 15 198 4 218 -6 10 -11 12
-11 5z"></path>
<path d="M1305 2608 c-2 -7 -3 -60 -2 -118 l2 -105 55 1 c85 2 94 6 94 45 1
28 5 35 25 37 13 2 28 -1 34 -7 18 -18 29 -13 25 12 -3 20 -8 22 -64 21 l-61
-1 1 61 1 61 -53 3 c-36 2 -54 -1 -57 -10z m70 -48 c0 -16 -6 -26 -18 -28 -19
-4 -32 20 -23 44 9 25 41 13 41 -16z m1 -92 c-1 -36 -4 -43 -21 -43 -17 0 -20
7 -21 43 -1 37 2 42 21 42 19 0 22 -5 21 -42z m54 -23 c0 -19 -4 -35 -10 -35
-5 0 -10 16 -10 35 0 19 5 35 10 35 6 0 10 -16 10 -35z"></path>
<path d="M1565 2608 c-2 -7 -3 -58 -2 -113 l2 -100 52 -3 53 -3 0 88 c0 48 1
99 2 113 3 24 0 25 -50 28 -36 2 -54 -1 -57 -10z m73 -42 c6 -29 -15 -43 -35
-24 -14 14 -14 20 -3 33 16 19 34 15 38 -9z m-3 -116 c0 -29 -32 -41 -41 -16
-9 24 4 48 23 44 12 -2 18 -12 18 -28z"></path>
<path d="M1824 2606 c-3 -8 -4 -31 -2 -52 3 -38 4 -39 47 -42 24 -2 47 0 51 5
4 4 11 29 14 56 l7 47 -56 0 c-38 0 -57 -4 -61 -14z m76 -21 c26 -32 -18 -71
-48 -42 -14 15 -14 18 3 37 22 24 29 25 45 5z"></path>
<path d="M2344 2606 c-3 -8 -4 -31 -2 -52 l3 -39 50 0 c41 0 50 3 53 19 3 15
0 17 -14 11 -51 -21 -91 6 -67 44 12 19 8 31 -9 31 -5 0 -11 -6 -14 -14z"></path>
<path d="M2422 2609 c2 -7 10 -15 17 -17 8 -3 12 1 9 9 -2 7 -10 15 -17 17 -8
3 -12 -1 -9 -9z"></path>
<path d="M2477 2614 c-4 -4 -4 -10 -1 -15 6 -10 34 0 34 12 0 10 -24 12 -33 3z"></path>
<path d="M2540 2611 c0 -10 30 -24 37 -17 3 3 2 9 -2 15 -8 13 -35 15 -35 2z"></path>
<path d="M2604 2607 c-3 -8 -4 -32 -2 -53 l3 -39 50 0 50 0 0 50 0 50 -48 3
c-34 2 -49 -1 -53 -11z m71 -37 c0 -16 -6 -26 -18 -28 -19 -4 -32 20 -23 44 9
25 41 13 41 -16z"></path>
<path d="M3127 2614 c-4 -4 -7 -10 -7 -13 0 -10 100 -4 103 5 3 11 -86 18 -96
8z"></path>
<path d="M3384 2606 c-3 -8 -4 -31 -2 -52 l3 -39 50 0 50 0 3 53 3 52 -51 0
c-34 0 -52 -5 -56 -14z m74 -39 c4 -20 -25 -34 -40 -19 -15 15 -1 44 19 40 10
-2 19 -11 21 -21z"></path>
<path d="M3645 2608 c-2 -7 -3 -58 -2 -113 l2 -100 50 0 50 0 0 110 0 110 -48
3 c-32 2 -49 -1 -52 -10z m75 -23 c10 -12 10 -22 2 -39 -7 -16 -7 -37 -1 -66
10 -44 0 -70 -27 -70 -21 0 -38 38 -24 55 8 10 10 31 5 64 -4 28 -4 55 0 61 9
15 31 12 45 -5z"></path>
<path d="M4035 2607 c-10 -24 0 -210 10 -214 6 -2 9 32 8 91 -2 75 1 97 13
107 11 9 20 10 32 2 14 -8 17 -28 18 -99 1 -49 6 -90 10 -91 5 -2 9 45 9 105
l0 107 -48 3 c-33 2 -49 -1 -52 -11z"></path>
<path d="M4167 2613 c-3 -4 -5 -54 -5 -111 0 -82 3 -104 14 -109 21 -8 29 4
15 21 -7 8 -10 43 -9 92 3 73 5 79 26 82 26 4 29 -3 37 -92 3 -45 1 -73 -6
-83 -14 -16 -6 -28 15 -20 12 5 15 26 13 114 l-2 108 -47 3 c-25 2 -48 -1 -51
-5z"></path>
<path d="M4635 2610 c-3 -5 1 -10 10 -10 9 0 13 5 10 10 -3 6 -8 10 -10 10 -2
0 -7 -4 -10 -10z"></path>
<path d="M4685 2610 c-3 -5 -1 -10 4 -10 6 0 11 5 11 10 0 6 -2 10 -4 10 -3 0
-8 -4 -11 -10z"></path>
<path d="M4937 2613 c-9 -15 -6 -213 4 -218 16 -10 31 5 19 20 -6 7 -10 51 -8
104 1 85 -3 114 -15 94z"></path>
<path d="M5072 2568 l3 -53 50 0 50 0 0 50 0 50 -53 3 -53 3 3 -53z m76 -5
c-3 -32 -44 -46 -54 -19 -10 26 4 46 31 46 23 0 26 -4 23 -27z"></path>
<path d="M5202 2568 l3 -53 50 0 50 0 0 50 0 50 -53 3 -53 3 3 -53z m73 -3 c0
-23 -5 -30 -19 -30 -28 0 -43 29 -26 50 21 25 45 14 45 -20z"></path>
<path d="M5335 2608 c-2 -7 -3 -58 -2 -113 l2 -100 50 0 50 0 0 110 0 110 -48
3 c-32 2 -49 -1 -52 -10z m70 -63 c0 -33 -4 -41 -21 -43 -18 -3 -23 4 -28 33
-8 43 -1 57 27 53 18 -2 22 -10 22 -43z m3 -98 c3 -22 -1 -27 -18 -27 -23 0
-35 22 -26 46 10 25 41 12 44 -19z"></path>
<path d="M6364 2605 c-4 -9 -4 -38 -1 -64 l6 -48 -67 1 -67 1 0 -50 0 -50 315
0 315 0 -1 61 -1 61 69 -5 c64 -4 68 -4 68 17 0 17 -6 21 -35 21 -24 0 -35 5
-35 15 0 10 11 15 35 15 28 0 35 4 35 20 0 18 -7 19 -122 17 l-123 -2 1 -60 1
-60 -142 0 -142 0 1 60 1 60 -53 3 c-41 2 -54 0 -58 -13z m72 -36 c10 -17 -13
-36 -27 -22 -12 12 -4 33 11 33 5 0 12 -5 16 -11z m380 -16 c-10 -10 -19 5
-10 18 6 11 8 11 12 0 2 -7 1 -15 -2 -18z m4 -53 c0 -5 -7 -10 -15 -10 -8 0
-15 5 -15 10 0 6 7 10 15 10 8 0 15 -4 15 -10z m-460 -55 c0 -14 -4 -25 -10
-25 -5 0 -10 11 -10 25 0 14 5 25 10 25 6 0 10 -11 10 -25z m77 9 c8 -21 -13
-42 -28 -27 -13 13 -5 43 11 43 6 0 13 -7 17 -16z m53 -14 c0 -16 -4 -30 -10
-30 -5 0 -10 14 -10 30 0 17 5 30 10 30 6 0 10 -13 10 -30z m336 19 c10 -17
-13 -36 -27 -22 -12 12 -4 33 11 33 5 0 12 -5 16 -11z m-266 -14 c0 -8 -4 -15
-10 -15 -5 0 -10 7 -10 15 0 8 5 15 10 15 6 0 10 -7 10 -15z m130 0 c0 -8 -7
-15 -15 -15 -16 0 -20 12 -8 23 11 12 23 8 23 -8z"></path>
<path d="M2907 2532 c-26 -2 -45 -7 -42 -13 8 -12 92 -12 100 0 8 14 -4 16
-58 13z"></path>
<path d="M3774 2500 c-1 -17 3 -30 7 -30 5 0 9 14 9 30 0 39 -15 39 -16 0z"></path>
<path d="M0 2445 l0 -55 61 0 60 0 -3 53 -3 52 -57 3 -58 3 0 -56z"></path>
<path d="M1954 2487 c-3 -8 -4 -32 -2 -53 l3 -39 55 0 54 0 1 50 0 50 -53 3
c-38 2 -54 -1 -58 -11z m74 -40 c4 -20 -25 -34 -40 -19 -15 15 -1 44 19 40 10
-2 19 -11 21 -21z"></path>
<path d="M2474 2487 c-3 -8 -4 -32 -2 -53 l3 -39 50 0 50 0 3 44 c3 45 -8 68
-28 56 -8 -5 -8 -10 0 -20 6 -8 10 -24 8 -37 -2 -17 -10 -23 -28 -23 -22 0
-25 4 -25 39 0 40 -20 61 -31 33z"></path>
<path d="M2997 2494 c-4 -4 -7 -29 -7 -56 l0 -49 53 3 52 3 0 50 0 50 -45 3
c-25 2 -49 0 -53 -4z m71 -47 c4 -20 -25 -34 -40 -19 -15 15 -1 44 19 40 10
-2 19 -11 21 -21z"></path>
<path d="M3514 2487 c-3 -8 -4 -32 -2 -53 l3 -39 50 0 50 0 0 50 0 50 -48 3
c-34 2 -49 -1 -53 -11z m74 -40 c4 -20 -25 -34 -40 -19 -15 15 -1 44 19 40 10
-2 19 -11 21 -21z"></path>
<path d="M3907 2494 c-14 -15 -8 -94 8 -101 23 -8 28 2 13 26 -16 25 -1 56 27
56 28 0 43 -31 27 -56 -15 -24 -10 -34 13 -25 12 4 15 17 13 53 l-3 48 -45 3
c-25 2 -49 0 -53 -4z"></path>
<path d="M4294 2487 c-9 -24 0 -90 13 -94 8 -3 10 8 6 36 -5 33 -2 42 12 47
26 10 50 -9 51 -42 1 -50 19 -37 19 14 l0 47 -48 3 c-34 2 -49 -1 -53 -11z"></path>
<path d="M4640 2480 c0 -5 5 -10 10 -10 6 0 10 5 10 10 0 6 -4 10 -10 10 -5 0
-10 -4 -10 -10z"></path>
<path d="M4680 2480 c0 -5 5 -10 10 -10 6 0 10 5 10 10 0 6 -4 10 -10 10 -5 0
-10 -4 -10 -10z"></path>
<path d="M6110 2446 c0 -24 5 -48 10 -51 6 -4 10 10 10 34 0 23 0 44 1 48 0 4
-4 9 -10 11 -7 2 -11 -14 -11 -42z"></path>
<path d="M1170 2465 c0 -8 4 -15 9 -15 5 0 11 7 15 15 3 9 0 15 -9 15 -8 0
-15 -7 -15 -15z"></path>
<path d="M2830 2470 c0 -5 5 -10 10 -10 6 0 10 5 10 10 0 6 -4 10 -10 10 -5 0
-10 -4 -10 -10z"></path>
<path d="M2830 2420 c0 -11 5 -20 10 -20 6 0 10 9 10 20 0 11 -4 20 -10 20 -5
0 -10 -9 -10 -20z"></path>
<path d="M5160 2415 c0 -8 5 -15 10 -15 6 0 10 7 10 15 0 8 -4 15 -10 15 -5 0
-10 -7 -10 -15z"></path>
<path d="M1520 2410 c0 -5 5 -10 10 -10 6 0 10 5 10 10 0 6 -4 10 -10 10 -5 0
-10 -4 -10 -10z"></path>
<path d="M5025 2411 c-6 -11 9 -23 19 -14 9 9 7 23 -3 23 -6 0 -12 -4 -16 -9z"></path>
<path d="M3775 2400 c3 -5 8 -10 11 -10 2 0 4 5 4 10 0 6 -5 10 -11 10 -5 0
-7 -4 -4 -10z"></path>
<path d="M4640 2399 c0 -5 5 -7 10 -4 6 3 10 8 10 11 0 2 -4 4 -10 4 -5 0 -10
-5 -10 -11z"></path>
<path d="M2213 2364 c-2 -7 -3 -31 -1 -55 l3 -44 50 0 50 0 3 52 3 51 -52 4
c-32 2 -53 -1 -56 -8z m75 -47 c4 -20 -25 -34 -40 -19 -15 15 -1 44 19 40 10
-2 19 -11 21 -21z"></path>
<path d="M2866 2371 c-3 -5 17 -11 45 -13 49 -3 66 2 52 16 -10 9 -91 7 -97
-3z"></path>
<path d="M4814 2371 c-2 -2 -4 -9 -4 -15 0 -14 103 -12 108 2 3 10 -95 22
-104 13z"></path>
<path d="M6887 2374 c-3 -4 -122 -7 -264 -8 l-258 -1 -3 -37 c-4 -50 -22 -49
-22 1 l0 39 -115 0 -115 0 0 -53 0 -53 445 0 445 0 0 59 0 59 -53 0 c-30 0
-56 -3 -60 -6z m-397 -59 c0 -19 -4 -35 -10 -35 -5 0 -10 16 -10 35 0 19 5 35
10 35 6 0 10 -16 10 -35z m390 5 c0 -11 -4 -20 -10 -20 -5 0 -10 9 -10 20 0
11 5 20 10 20 6 0 10 -9 10 -20z m-706 -11 c-3 -5 -10 -7 -15 -3 -5 3 -7 10
-3 15 3 5 10 7 15 3 5 -3 7 -10 3 -15z m126 6 c0 -8 -4 -15 -9 -15 -13 0 -22
16 -14 24 11 11 23 6 23 -9z m140 6 c0 -14 -18 -23 -30 -16 -6 4 -8 11 -5 16
8 12 35 12 35 0z m114 -12 c-3 -5 -10 -7 -15 -3 -5 3 -7 10 -3 15 3 5 10 7 15
3 5 -3 7 -10 3 -15z m138 6 c0 -5 -5 -11 -11 -13 -6 -2 -11 4 -11 13 0 9 5 15
11 13 6 -2 11 -8 11 -13z m129 2 c-1 -12 -15 -9 -19 4 -3 6 1 10 8 8 6 -3 11
-8 11 -12z"></path>
<path d="M0 2356 c0 -10 12 -16 38 -18 25 -2 37 -8 37 -18 0 -10 -12 -16 -37
-18 -29 -2 -38 -8 -38 -22 0 -17 15 -18 318 -17 l317 2 0 50 0 50 -52 3 -53 3
0 -40 c0 -51 -18 -54 -22 -3 l-3 37 -52 3 -53 3 0 -40 c0 -51 -18 -54 -22 -3
l-3 37 -117 2 -118 2 0 -44 c0 -57 -18 -59 -22 -2 l-3 42 -57 3 c-46 2 -58 0
-58 -12z m270 -36 c0 -16 -4 -30 -10 -30 -5 0 -10 14 -10 30 0 17 5 30 10 30
6 0 10 -13 10 -30z m330 14 c11 -12 10 -18 -3 -32 -16 -15 -18 -15 -34 0 -13
14 -14 20 -3 32 7 9 16 16 20 16 4 0 13 -7 20 -16z m-394 -5 c10 -17 -13 -36
-27 -22 -12 12 -4 33 11 33 5 0 12 -5 16 -11z m130 0 c10 -17 -13 -36 -27 -22
-12 12 -4 33 11 33 5 0 12 -5 16 -11z m142 -12 c4 -20 -25 -34 -40 -19 -15 15
-1 44 19 40 10 -2 19 -11 21 -21z"></path>
<path d="M784 2356 c-3 -8 -4 -31 -2 -52 l3 -39 50 0 50 0 3 53 3 52 -51 0
c-34 0 -52 -5 -56 -14z m73 -32 c8 -21 -13 -42 -28 -27 -13 13 -5 43 11 43 6
0 13 -7 17 -16z"></path>
<path d="M914 2357 c-3 -8 -4 -32 -2 -53 l3 -39 53 -3 53 -3 -3 53 -3 53 -48
3 c-34 2 -49 -1 -53 -11z m76 -22 c17 -20 5 -45 -20 -45 -23 0 -35 22 -26 45
7 19 30 19 46 0z"></path>
<path d="M1044 2355 c-3 -7 -4 -30 -2 -51 l3 -39 120 0 120 0 3 52 3 52 -121
0 c-91 -1 -123 -4 -126 -14z m76 -20 c17 -20 5 -45 -20 -45 -11 0 -23 7 -26
15 -6 15 11 45 26 45 4 0 13 -7 20 -15z m50 -10 c0 -14 -4 -25 -10 -25 -5 0
-10 11 -10 25 0 14 5 25 10 25 6 0 10 -11 10 -25z m79 7 c7 -13 6 -23 -1 -30
-28 -28 -63 3 -38 33 16 20 27 19 39 -3z"></path>
<path d="M1432 2318 l3 -53 50 0 50 0 0 50 0 50 -53 3 -53 3 3 -53z m76 -1 c4
-20 -25 -34 -40 -19 -15 15 -1 44 19 40 10 -2 19 -11 21 -21z"></path>
<path d="M1694 2356 c-3 -8 -4 -31 -2 -52 l3 -39 55 0 55 0 0 53 0 52 -53 0
c-36 0 -54 -4 -58 -14z m74 -39 c4 -20 -25 -34 -40 -19 -15 15 -1 44 19 40 10
-2 19 -11 21 -21z"></path>
<path d="M1954 2356 c-3 -8 -4 -31 -2 -52 l3 -39 115 0 c112 0 115 1 118 23 4
26 -5 28 -30 5 -24 -22 -53 -6 -53 28 0 28 36 39 61 18 18 -14 29 -6 20 16 -4
12 -17 15 -53 13 l-48 -3 -3 -42 c-4 -57 -22 -55 -22 2 l0 45 -50 0 c-34 0
-52 -5 -56 -14z m74 -39 c4 -20 -25 -34 -40 -19 -15 15 -1 44 19 40 10 -2 19
-11 21 -21z"></path>
<path d="M2344 2357 c-3 -8 -4 -32 -2 -53 l3 -39 50 0 50 0 0 50 0 50 -48 3
c-34 2 -49 -1 -53 -11z m80 -29 c8 -14 7 -21 -6 -34 -30 -30 -75 9 -48 42 16
18 39 15 54 -8z"></path>
<path d="M2474 2357 c-3 -8 -4 -32 -2 -53 l3 -39 50 0 50 0 0 50 0 50 -48 3
c-34 2 -49 -1 -53 -11z m84 -33 c4 -25 -22 -49 -43 -40 -22 8 -29 34 -14 52
17 21 53 14 57 -12z"></path>
<path d="M2602 2318 l3 -53 50 0 50 0 0 50 0 50 -53 3 -53 3 3 -53z m76 -1 c4
-20 -25 -34 -40 -19 -15 15 -1 44 19 40 10 -2 19 -11 21 -21z"></path>
<path d="M3124 2357 c-3 -8 -4 -32 -2 -53 l3 -39 50 0 50 0 0 50 0 50 -48 3
c-34 2 -49 -1 -53 -11z m74 -40 c4 -20 -25 -34 -40 -19 -15 15 -1 44 19 40 10
-2 19 -11 21 -21z"></path>
<path d="M3384 2357 c-3 -8 -4 -32 -2 -53 l3 -39 50 0 50 0 0 50 0 50 -48 3
c-34 2 -49 -1 -53 -11z m74 -40 c4 -20 -25 -34 -40 -19 -15 15 -1 44 19 40 10
-2 19 -11 21 -21z"></path>
<path d="M3644 2357 c-3 -8 -4 -32 -2 -53 l3 -39 50 0 50 0 0 50 0 50 -48 3
c-34 2 -49 -1 -53 -11z m71 -37 c0 -16 -6 -26 -18 -28 -19 -4 -32 20 -23 44 9
25 41 13 41 -16z"></path>
<path d="M3775 2360 c-3 -5 -1 -10 4 -10 6 0 11 5 11 10 0 6 -2 10 -4 10 -3 0
-8 -4 -11 -10z"></path>
<path d="M3852 2359 c2 -7 10 -15 17 -17 8 -3 12 1 9 9 -2 7 -10 15 -17 17 -8
3 -12 -1 -9 -9z"></path>
<path d="M3904 2356 c-3 -8 -4 -31 -2 -52 l3 -39 50 0 50 0 3 48 c2 36 -1 49
-13 53 -22 9 -30 -2 -16 -20 7 -8 11 -25 9 -38 -2 -18 -9 -23 -33 -23 -24 0
-31 5 -33 24 -2 13 1 28 7 34 16 16 14 27 -4 27 -9 0 -18 -6 -21 -14z"></path>
<path d="M4035 2359 c-10 -15 3 -25 16 -12 7 7 7 13 1 17 -6 3 -14 1 -17 -5z"></path>
<path d="M4165 2359 c-4 -6 -5 -12 -2 -15 7 -7 37 7 37 17 0 13 -27 11 -35 -2z"></path>
<path d="M4220 2362 c0 -6 7 -13 16 -16 20 -8 15 -45 -8 -60 -13 -8 -23 -7
-39 2 -24 15 -34 10 -25 -13 4 -12 17 -15 53 -13 l48 3 0 50 c0 44 -3 50 -22
53 -13 2 -23 -1 -23 -6z"></path>
<path d="M4294 2356 c-3 -8 -4 -31 -2 -52 l3 -39 50 0 50 0 3 53 c2 39 0 52
-11 52 -10 0 -13 -12 -13 -42 1 -41 0 -43 -29 -43 -29 0 -30 2 -29 43 1 41
-11 56 -22 28z"></path>
<path d="M4423 2355 c-8 -22 6 -33 17 -15 13 20 12 30 0 30 -6 0 -13 -7 -17
-15z"></path>
<path d="M4490 2363 c0 -5 5 -14 11 -20 6 -6 9 -21 7 -34 -4 -28 -40 -38 -64
-18 -18 14 -29 6 -20 -16 4 -12 17 -15 53 -13 l48 3 0 50 c0 39 -4 50 -17 53
-10 2 -18 0 -18 -5z"></path>
<path d="M4552 2319 l3 -54 50 0 50 0 0 48 c0 26 -4 48 -9 50 -5 1 -10 -16
-10 -38 -1 -38 -3 -40 -31 -40 -28 0 -30 2 -31 39 0 22 -6 42 -13 44 -9 3 -11
-10 -9 -49z"></path>
<path d="M4684 2356 c-3 -8 -4 -31 -2 -52 l3 -39 50 0 50 0 3 53 c3 47 1 52
-17 52 -24 0 -25 -3 -9 -30 17 -26 -1 -55 -33 -55 -22 0 -24 4 -23 43 1 41
-11 56 -22 28z"></path>
<path d="M5074 2357 c-3 -8 -4 -32 -2 -53 l3 -39 50 0 50 0 0 50 0 50 -48 3
c-34 2 -49 -1 -53 -11z m76 -22 c18 -21 5 -45 -25 -45 -27 0 -41 20 -31 45 7
19 40 19 56 0z"></path>
<path d="M5204 2357 c-3 -8 -4 -32 -2 -53 l3 -39 50 0 50 0 0 50 0 50 -48 3
c-34 2 -49 -1 -53 -11z m77 -23 c9 -11 10 -20 2 -32 -13 -22 -43 -22 -56 -1
-24 38 25 68 54 33z"></path>
<path d="M5464 2357 c-3 -8 -4 -32 -2 -53 l3 -39 50 0 50 0 0 50 0 50 -48 3
c-34 2 -49 -1 -53 -11z m77 -23 c9 -11 10 -20 2 -32 -13 -22 -43 -22 -56 -1
-24 38 25 68 54 33z"></path>
<path d="M5590 2316 l0 -54 183 1 182 2 0 50 0 50 -117 2 -118 2 0 -29 c0 -38
-18 -39 -22 -2 -3 25 -7 27 -55 30 l-53 3 0 -55z m87 18 c8 -22 -10 -49 -32
-49 -10 0 -22 7 -28 16 -15 24 -1 49 28 49 15 0 28 -7 32 -16z m124 0 c9 -11
10 -20 2 -32 -15 -24 -44 -27 -59 -7 -28 38 27 75 57 39z m49 -4 c0 -11 -4
-20 -10 -20 -5 0 -10 9 -10 20 0 11 5 20 10 20 6 0 10 -9 10 -20z m75 -10 c0
-18 -6 -26 -23 -28 -13 -2 -25 3 -28 12 -10 26 4 48 28 44 17 -2 23 -10 23
-28z"></path>
<path d="M5984 2356 c-3 -8 -4 -31 -2 -52 3 -38 4 -39 47 -42 48 -4 67 8 57
34 -6 16 -8 16 -25 -1 -11 -9 -28 -15 -38 -13 -21 4 -30 43 -14 62 11 13 5 26
-11 26 -5 0 -11 -6 -14 -14z"></path>
<path d="M6050 2361 c0 -5 6 -14 14 -20 16 -13 32 2 21 19 -8 12 -35 13 -35 1z"></path>
<path d="M1560 2350 c0 -5 5 -10 10 -10 6 0 10 5 10 10 0 6 -4 10 -10 10 -5 0
-10 -4 -10 -10z"></path>
<path d="M1650 2350 c0 -5 5 -10 10 -10 6 0 10 5 10 10 0 6 -4 10 -10 10 -5 0
-10 -4 -10 -10z"></path>
<path d="M1560 2285 c0 -16 27 -32 37 -21 7 7 -16 36 -28 36 -5 0 -9 -7 -9
-15z"></path>
<path d="M1640 2285 c-7 -9 -10 -18 -7 -21 10 -11 37 5 37 21 0 19 -14 19 -30
0z"></path>
<path d="M3850 2285 c-7 -9 -10 -18 -7 -21 10 -11 37 5 37 21 0 19 -14 19 -30
0z"></path>
<path d="M4810 2285 c0 -16 27 -32 37 -21 7 7 -16 36 -28 36 -5 0 -9 -7 -9
-15z"></path>
<path d="M3776 2282 c-3 -6 -1 -14 5 -17 15 -10 25 3 12 16 -7 7 -13 7 -17 1z"></path>
<path d="M4030 2280 c0 -13 28 -25 38 -16 3 4 0 11 -8 16 -20 13 -30 12 -30 0z"></path>
<path d="M4108 2283 c-10 -3 -18 -9 -18 -14 0 -12 37 -12 45 0 7 12 -5 19 -27
14z"></path>
<path d="M4890 2280 c-8 -5 -11 -12 -8 -16 10 -9 38 3 38 16 0 12 -10 13 -30
0z"></path>
<path d="M3330 2270 c0 -5 4 -10 9 -10 6 0 13 5 16 10 3 6 -1 10 -9 10 -9 0
-16 -4 -16 -10z"></path>
<path d="M662 2193 l3 -58 110 0 110 0 0 50 0 50 -57 0 c-31 0 -60 4 -64 8 -4
4 -29 7 -56 7 l-49 0 3 -57z m76 -6 c4 -20 -25 -34 -40 -19 -15 15 -1 44 19
40 10 -2 19 -11 21 -21z m120 0 c4 -20 -25 -34 -40 -19 -15 15 -1 44 19 40 10
-2 19 -11 21 -21z"></path>
<path d="M1307 2243 c-4 -3 -94 -7 -199 -7 l-193 -1 0 -50 0 -50 310 0 310 0
0 50 0 50 -57 0 c-31 0 -60 4 -64 8 -9 9 -98 9 -107 0z m-7 -58 c0 -19 -4 -35
-10 -35 -5 0 -10 16 -10 35 0 19 5 35 10 35 6 0 10 -16 10 -35z m205 5 c0 -29
-32 -41 -41 -16 -9 24 4 48 23 44 12 -2 18 -12 18 -28z m-518 4 c3 -8 1 -20
-6 -27 -14 -14 -47 15 -37 32 10 16 36 13 43 -5z m138 -9 c0 -22 -31 -33 -47
-17 -17 17 -1 44 24 40 15 -2 23 -10 23 -23z m130 0 c0 -22 -31 -33 -47 -17
-17 17 -1 44 24 40 15 -2 23 -10 23 -23z m130 0 c0 -22 -31 -33 -47 -17 -17
17 -1 44 24 40 15 -2 23 -10 23 -23z m45 10 c0 -8 -4 -15 -10 -15 -5 0 -10 7
-10 15 0 8 5 15 10 15 6 0 10 -7 10 -15z m-390 -35 c0 -5 -4 -10 -10 -10 -5 0
-10 5 -10 10 0 6 5 10 10 10 6 0 10 -4 10 -10z"></path>
<path d="M0 2186 l0 -54 318 1 317 2 0 50 0 50 -117 2 -118 2 0 -44 c0 -57
-18 -59 -22 -2 l-3 42 -117 2 -118 2 0 -44 c0 -57 -18 -59 -22 -2 l-3 42 -57
3 -58 3 0 -55z m260 -1 c0 -14 -4 -25 -10 -25 -5 0 -10 11 -10 25 0 14 5 25
10 25 6 0 10 -11 10 -25z m215 0 c0 -22 -31 -33 -47 -17 -17 17 -1 44 24 40
15 -2 23 -10 23 -23z m-274 0 c-1 -15 -24 -12 -29 3 -3 9 2 13 12 10 10 -1 17
-7 17 -13z m129 0 c0 -8 -4 -15 -9 -15 -13 0 -22 16 -14 24 11 11 23 6 23 -9z
m265 6 c7 -12 -12 -24 -25 -16 -11 7 -4 25 10 25 5 0 11 -4 15 -9z"></path>
<path d="M1564 2226 c-3 -8 -4 -31 -2 -52 l3 -39 53 -3 52 -3 0 55 0 56 -50 0
c-34 0 -52 -5 -56 -14z m74 -39 c4 -20 -25 -34 -40 -19 -15 15 -1 44 19 40 10
-2 19 -11 21 -21z"></path>
<path d="M1694 2227 c-3 -8 -4 -32 -2 -53 l3 -39 50 0 50 0 0 50 0 50 -48 3
c-34 2 -49 -1 -53 -11z m81 -42 c0 -27 -3 -30 -30 -30 -21 0 -31 5 -33 18 -6
33 6 49 35 45 24 -3 28 -8 28 -33z"></path>
<path d="M1824 2227 c-3 -8 -4 -32 -2 -53 l3 -39 50 0 50 0 0 50 0 50 -48 3
c-34 2 -49 -1 -53 -11z m84 -33 c4 -25 -22 -49 -43 -40 -22 8 -29 34 -14 52
17 21 53 14 57 -12z"></path>
<path d="M2214 2226 c-3 -8 -4 -31 -2 -52 3 -39 3 -39 51 -42 36 -2 49 1 53
13 9 23 -1 28 -25 13 -25 -16 -56 -1 -56 27 0 28 31 43 56 27 24 -15 34 -10
26 13 -8 20 -95 21 -103 1z"></path>
<path d="M2347 2234 c-10 -11 -9 -64 2 -64 5 0 11 10 13 23 2 18 9 22 43 23
22 0 40 5 40 10 0 11 -88 18 -98 8z"></path>
<path d="M2734 2227 c-3 -8 -4 -32 -2 -53 l3 -39 50 0 50 0 0 50 0 50 -48 3
c-34 2 -49 -1 -53 -11z m74 -40 c4 -20 -25 -34 -40 -19 -15 15 -1 44 19 40 10
-2 19 -11 21 -21z"></path>
<path d="M2992 2188 l3 -53 50 0 50 0 0 50 0 50 -53 3 -53 3 3 -53z m76 -1 c4
-20 -25 -34 -40 -19 -15 15 -1 44 19 40 10 -2 19 -11 21 -21z"></path>
<path d="M3255 2229 c-4 -6 -5 -13 -2 -16 7 -7 27 6 27 18 0 12 -17 12 -25 -2z"></path>
<path d="M3384 2227 c-3 -8 -4 -32 -2 -53 l3 -39 50 0 50 0 0 50 0 50 -48 3
c-34 2 -49 -1 -53 -11z m74 -40 c4 -20 -25 -34 -40 -19 -15 15 -1 44 19 40 10
-2 19 -11 21 -21z"></path>
<path d="M3514 2227 c-3 -8 -4 -32 -2 -53 l3 -39 50 0 50 0 0 50 0 50 -48 3
c-34 2 -49 -1 -53 -11z m66 -22 c15 -18 6 -45 -13 -45 -8 0 -20 7 -27 15 -10
12 -10 18 0 30 16 19 24 19 40 0z"></path>
<path d="M3775 2231 c-6 -11 9 -23 19 -14 9 9 7 23 -3 23 -6 0 -12 -4 -16 -9z"></path>
<path d="M3840 2233 c0 -5 5 -14 11 -20 6 -6 9 -21 7 -34 -4 -28 -40 -38 -64
-18 -18 14 -29 6 -20 -16 4 -12 17 -15 53 -13 l48 3 0 50 c0 39 -4 50 -17 53
-10 2 -18 0 -18 -5z"></path>
<path d="M3904 2227 c-3 -8 -4 -32 -2 -53 2 -32 7 -40 26 -42 25 -4 30 13 6
22 -10 4 -14 15 -12 33 3 24 8 28 33 28 24 0 31 -5 33 -23 2 -13 -2 -30 -9
-38 -14 -18 -6 -29 16 -20 12 4 15 17 13 53 l-3 48 -48 3 c-34 2 -49 -1 -53
-11z"></path>
<path d="M4167 2234 c-4 -4 -4 -10 -1 -15 6 -10 34 0 34 12 0 10 -24 12 -33 3z"></path>
<path d="M4230 2231 c0 -6 5 -11 10 -11 6 0 10 -11 10 -25 0 -14 5 -25 11 -25
18 0 6 64 -13 68 -10 2 -18 -1 -18 -7z"></path>
<path d="M4557 2234 c-10 -10 -9 -54 2 -54 5 0 11 9 14 21 4 16 12 20 34 17
25 -3 28 -7 29 -38 1 -54 19 -47 19 8 l0 47 -45 3 c-25 2 -49 0 -53 -4z"></path>
<path d="M4684 2227 c-3 -8 -4 -32 -2 -53 l3 -39 50 0 50 0 0 50 0 50 -48 3
c-34 2 -49 -1 -53 -11z m81 -42 c0 -27 -3 -30 -30 -30 -21 0 -31 5 -33 18 -6
33 6 49 35 45 24 -3 28 -8 28 -33z"></path>
<path d="M4814 2226 c-3 -8 -4 -31 -2 -52 3 -39 3 -39 51 -42 36 -2 49 1 53
13 9 22 -2 30 -20 16 -24 -20 -60 -10 -64 18 -2 13 1 28 7 34 16 16 14 27 -4
27 -9 0 -18 -6 -21 -14z"></path>
<path d="M4892 2231 c4 -13 18 -16 19 -4 0 4 -5 9 -11 12 -7 2 -11 -2 -8 -8z"></path>
<path d="M4940 2221 c0 -12 5 -21 10 -21 6 0 10 5 10 10 0 6 11 10 25 10 29 0
43 -25 28 -49 -16 -25 -44 -26 -50 -2 -8 31 -23 25 -23 -10 l0 -30 53 3 52 3
0 50 0 50 -52 3 c-48 3 -53 1 -53 -17z"></path>
<path d="M5155 2230 c-3 -5 1 -10 10 -10 9 0 13 5 10 10 -3 6 -8 10 -10 10 -2
0 -7 -4 -10 -10z"></path>
<path d="M5204 2227 c-3 -8 -4 -32 -2 -53 l3 -39 50 0 50 0 0 50 0 50 -48 3
c-34 2 -49 -1 -53 -11z m76 -23 c11 -13 10 -19 -8 -36 -17 -18 -23 -19 -36 -8
-16 13 -21 42 -9 53 11 12 40 7 53 -9z"></path>
<path d="M5332 2188 l3 -53 50 0 50 0 0 50 0 50 -53 3 -53 3 3 -53z m73 -3 c0
-22 -31 -33 -47 -17 -17 17 -1 44 24 40 15 -2 23 -10 23 -23z"></path>
<path d="M5464 2227 c-3 -8 -4 -32 -2 -53 l3 -39 310 0 310 0 0 50 0 50 -247
2 -248 1 0 -44 c0 -56 -18 -58 -22 -1 l-3 42 -48 3 c-34 2 -49 -1 -53 -11z
m80 -29 c16 -27 -14 -54 -43 -39 -21 11 -28 41 -14 55 12 12 45 2 57 -16z
m133 6 c8 -22 -10 -49 -32 -49 -10 0 -22 7 -28 16 -15 24 -1 49 28 49 15 0 28
-7 32 -16z m43 6 c0 -5 -4 -10 -10 -10 -5 0 -10 5 -10 10 0 6 5 10 10 10 6 0
10 -4 10 -10z m78 -16 c2 -11 -4 -27 -13 -34 -14 -11 -19 -10 -37 8 -18 18
-19 23 -8 37 18 22 54 15 58 -11z m52 -9 c0 -19 -4 -35 -10 -35 -5 0 -10 16
-10 35 0 19 5 35 10 35 6 0 10 -16 10 -35z m75 25 c5 -8 12 -7 22 1 18 15 33
-2 33 -38 0 -25 -10 -29 -27 -12 -8 8 -16 7 -31 -2 -17 -10 -23 -10 -36 0 -16
14 -21 42 -9 54 10 11 41 8 48 -3z m119 -31 c-3 -5 -10 -7 -15 -3 -5 3 -7 10
-3 15 3 5 10 7 15 3 5 -3 7 -10 3 -15z m-324 -9 c0 -5 -4 -10 -10 -10 -5 0
-10 5 -10 10 0 6 5 10 10 10 6 0 10 -4 10 -10z"></path>
<path d="M6115 2232 c-3 -3 -5 -27 -5 -52 l0 -48 445 0 c424 0 445 1 445 19 0
13 -9 19 -37 21 -26 2 -38 8 -38 18 0 10 12 16 38 18 22 2 37 8 37 16 0 11
-81 14 -440 14 -241 0 -442 -3 -445 -6z m245 -42 c0 -16 -4 -30 -10 -30 -5 0
-10 14 -10 30 0 17 5 30 10 30 6 0 10 -13 10 -30z m130 -5 c0 -14 -4 -25 -10
-25 -5 0 -10 11 -10 25 0 14 5 25 10 25 6 0 10 -11 10 -25z m263 -12 c-4 -10
-9 -11 -16 -4 -5 5 -7 18 -3 28 6 14 9 15 16 4 4 -8 6 -21 3 -28z m-579 6 c-3
-5 -10 -7 -15 -3 -5 3 -7 10 -3 15 3 5 10 7 15 3 5 -3 7 -10 3 -15z m126 13
c0 -13 -12 -22 -22 -16 -10 6 -1 24 13 24 5 0 9 -4 9 -8z m135 -1 c7 -12 -12
-24 -25 -16 -11 7 -4 25 10 25 5 0 11 -4 15 -9z m130 0 c7 -12 -12 -24 -25
-16 -11 7 -4 25 10 25 5 0 11 -4 15 -9z m130 0 c7 -12 -12 -24 -25 -16 -11 7
-4 25 10 25 5 0 11 -4 15 -9z m129 -12 c-3 -5 -10 -7 -15 -3 -5 3 -7 10 -3 15
3 5 10 7 15 3 5 -3 7 -10 3 -15z"></path>
<path d="M3210 2220 c0 -5 5 -10 10 -10 6 0 10 5 10 10 0 6 -4 10 -10 10 -5 0
-10 -4 -10 -10z"></path>
<path d="M2350 2142 c0 -9 14 -12 48 -10 59 4 57 20 -3 22 -31 1 -45 -3 -45
-12z"></path>
<path d="M3205 2149 c-10 -15 3 -25 16 -12 7 7 7 13 1 17 -6 3 -14 1 -17 -5z"></path>
<path d="M4166 2152 c-3 -6 -1 -14 5 -17 15 -10 25 3 12 16 -7 7 -13 7 -17 1z"></path>
<path d="M4552 2151 c4 -13 18 -16 19 -4 0 4 -5 9 -11 12 -7 2 -11 -2 -8 -8z"></path>
<path d="M2475 2140 c3 -5 8 -10 11 -10 2 0 4 5 4 10 0 6 -5 10 -11 10 -5 0
-7 -4 -4 -10z"></path>
<path d="M4240 2140 c0 -5 4 -10 9 -10 6 0 13 5 16 10 3 6 -1 10 -9 10 -9 0
-16 -4 -16 -10z"></path>
<path d="M5155 2140 c4 -6 11 -8 16 -5 14 9 11 15 -7 15 -8 0 -12 -5 -9 -10z"></path>
<path d="M0 2096 c0 -10 12 -16 38 -18 25 -2 37 -8 37 -18 0 -10 -12 -16 -37
-18 -30 -3 -38 -7 -38 -22 0 -18 8 -19 123 -17 l122 2 0 50 0 50 -52 3 -53 3
0 -45 c0 -58 -18 -60 -22 -3 l-3 42 -57 3 c-46 2 -58 0 -58 -12z m201 -41 c-1
-15 -24 -12 -29 3 -3 9 2 13 12 10 10 -1 17 -7 17 -13z"></path>
<path d="M270 2055 l0 -53 183 1 182 2 0 50 0 50 -182 2 -183 1 0 -53z m85 15
c9 -15 -14 -40 -36 -40 -22 0 -33 16 -25 35 6 17 52 20 61 5z m123 -13 c2 -9
-4 -20 -13 -23 -20 -8 -50 19 -40 36 10 17 49 8 53 -13z m118 12 c10 -17 -13
-36 -27 -22 -12 12 -4 33 11 33 5 0 12 -5 16 -11z"></path>
<path d="M660 2055 l0 -53 115 0 116 0 -3 51 -3 52 -112 2 -113 2 0 -54z m78
8 c5 -17 -26 -29 -40 -15 -6 6 -7 15 -3 22 9 14 37 9 43 -7z m120 0 c5 -17
-26 -29 -40 -15 -6 6 -7 15 -3 22 9 14 37 9 43 -7z"></path>
<path d="M914 2095 c-3 -7 -4 -30 -2 -51 l3 -39 248 -2 247 -1 0 44 c0 56 18
58 22 2 l3 -43 50 0 50 0 0 50 0 50 -308 2 c-244 1 -309 -2 -313 -12z m596
-20 c17 -20 5 -45 -20 -45 -11 0 -23 7 -26 15 -6 15 11 45 26 45 4 0 13 -7 20
-15z m-385 -20 c0 -22 -31 -33 -47 -17 -17 17 -1 44 24 40 15 -2 23 -10 23
-23z m45 5 c0 -11 -4 -20 -10 -20 -5 0 -10 9 -10 20 0 11 5 20 10 20 6 0 10
-9 10 -20z m85 -5 c0 -22 -31 -33 -47 -17 -17 17 -1 44 24 40 15 -2 23 -10 23
-23z m133 -2 c3 -22 -28 -40 -48 -28 -12 7 -13 38 -3 49 15 14 48 1 51 -21z
m-348 2 c0 -8 -4 -15 -10 -15 -5 0 -10 7 -10 15 0 8 5 15 10 15 6 0 10 -7 10
-15z"></path>
<path d="M1564 2096 c-3 -8 -4 -31 -2 -52 l3 -39 50 0 50 0 3 53 3 52 -51 0
c-34 0 -52 -5 -56 -14z m76 -21 c10 -12 10 -18 0 -30 -16 -19 -39 -19 -46 0
-6 15 11 45 26 45 4 0 13 -7 20 -15z"></path>
<path d="M1695 2100 c-3 -5 1 -10 10 -10 9 0 13 5 10 10 -3 6 -8 10 -10 10 -2
0 -7 -4 -10 -10z"></path>
<path d="M1766 2101 c-3 -5 1 -11 9 -15 15 -6 29 7 18 18 -9 9 -21 8 -27 -3z"></path>
<path d="M1824 2097 c-3 -8 -4 -32 -2 -53 l3 -39 50 0 50 0 0 50 0 50 -48 3
c-34 2 -49 -1 -53 -11z m81 -42 c0 -25 -4 -30 -24 -30 -28 0 -47 25 -38 49 5
12 16 16 34 14 24 -3 28 -8 28 -33z"></path>
<path d="M1954 2096 c-3 -8 -4 -31 -2 -52 l3 -39 49 -3 c52 -3 70 5 57 27 -7
11 -12 11 -30 -1 -25 -15 -56 -1 -56 27 0 27 31 43 55 27 27 -16 30 -15 30 8
0 17 -7 20 -50 20 -34 0 -52 -5 -56 -14z"></path>
<path d="M2214 2097 c-3 -8 -4 -32 -2 -53 l3 -39 50 0 50 0 0 50 0 50 -48 3
c-34 2 -49 -1 -53 -11z m84 -34 c4 -28 -32 -50 -54 -32 -17 14 -18 31 -2 47
19 19 53 10 56 -15z"></path>
<path d="M2345 2100 c-3 -5 -1 -10 4 -10 6 0 11 5 11 10 0 6 -2 10 -4 10 -3 0
-8 -4 -11 -10z"></path>
<path d="M2422 2099 c2 -7 10 -15 17 -17 8 -3 12 1 9 9 -2 7 -10 15 -17 17 -8
3 -12 -1 -9 -9z"></path>
<path d="M2475 2099 c-10 -15 3 -25 16 -12 7 7 7 13 1 17 -6 3 -14 1 -17 -5z"></path>
<path d="M2604 2097 c-3 -8 -4 -32 -2 -53 l3 -39 50 0 50 0 0 50 0 50 -48 3
c-34 2 -49 -1 -53 -11z m81 -42 c0 -22 -31 -33 -47 -17 -17 17 -1 44 24 40 15
-2 23 -10 23 -23z"></path>
<path d="M2734 2097 c-3 -8 -4 -32 -2 -53 l3 -39 50 0 50 0 0 50 0 50 -48 3
c-34 2 -49 -1 -53 -11z m76 -22 c18 -21 5 -45 -25 -45 -14 0 -28 7 -31 15 -7
17 12 45 31 45 7 0 18 -7 25 -15z"></path>
<path d="M2994 2097 c-3 -8 -4 -32 -2 -53 l3 -39 50 0 50 0 0 50 0 50 -48 3
c-34 2 -49 -1 -53 -11z m74 -40 c4 -20 -25 -34 -40 -19 -15 15 -1 44 19 40 10
-2 19 -11 21 -21z"></path>
<path d="M3254 2097 c-3 -8 -4 -32 -2 -53 l3 -39 50 0 50 0 0 50 0 50 -48 3
c-34 2 -49 -1 -53 -11z m74 -40 c4 -20 -25 -34 -40 -19 -15 15 -1 44 19 40 10
-2 19 -11 21 -21z"></path>
<path d="M3600 2100 c0 -5 5 -10 11 -10 5 0 7 5 4 10 -3 6 -8 10 -11 10 -2 0
-4 -4 -4 -10z"></path>
<path d="M3645 2101 c-6 -11 9 -23 19 -14 9 9 7 23 -3 23 -6 0 -12 -4 -16 -9z"></path>
<path d="M3724 2068 l1 -43 -43 1 c-27 0 -41 -3 -39 -10 2 -6 26 -11 53 -11
l49 0 0 49 c0 27 -5 51 -11 53 -7 2 -10 -12 -10 -39z"></path>
<path d="M3774 2097 c-3 -8 -4 -32 -2 -53 l3 -39 50 0 50 0 0 50 0 50 -48 3
c-34 2 -49 -1 -53 -11z m81 -42 c0 -27 -3 -30 -30 -30 -21 0 -31 5 -33 18 -6
33 6 49 35 45 24 -3 28 -8 28 -33z"></path>
<path d="M3905 2099 c-10 -15 3 -25 16 -12 7 7 7 13 1 17 -6 3 -14 1 -17 -5z"></path>
<path d="M3990 2100 c0 -5 5 -10 11 -10 5 0 7 5 4 10 -3 6 -8 10 -11 10 -2 0
-4 -4 -4 -10z"></path>
<path d="M4035 2099 c-10 -15 3 -25 16 -12 7 7 7 13 1 17 -6 3 -14 1 -17 -5z"></path>
<path d="M4294 2097 c-3 -8 -4 -32 -2 -53 l3 -39 50 0 50 0 0 50 0 50 -48 3
c-34 2 -49 -1 -53 -11z m71 -47 c0 -29 -32 -41 -41 -16 -9 24 4 48 23 44 12
-2 18 -12 18 -28z"></path>
<path d="M4425 2101 c-6 -11 9 -23 19 -14 9 9 7 23 -3 23 -6 0 -12 -4 -16 -9z"></path>
<path d="M4506 2102 c-3 -6 -1 -14 5 -17 15 -10 25 3 12 16 -7 7 -13 7 -17 1z"></path>
<path d="M4554 2096 c-3 -8 -4 -31 -2 -52 l3 -39 50 0 50 0 3 53 3 52 -51 0
c-34 0 -52 -5 -56 -14z m71 -36 c0 -18 -6 -26 -23 -28 -27 -4 -40 22 -22 44
19 22 45 13 45 -16z"></path>
<path d="M4685 2099 c-4 -6 -5 -12 -2 -15 7 -7 37 7 37 17 0 13 -27 11 -35 -2z"></path>
<path d="M4762 2101 c4 -13 18 -16 19 -4 0 4 -5 9 -11 12 -7 2 -11 -2 -8 -8z"></path>
<path d="M4814 2096 c-3 -8 -4 -31 -2 -52 l3 -39 50 0 50 0 3 48 c2 36 -1 49
-13 53 -23 9 -28 -1 -13 -25 17 -27 0 -56 -33 -56 -18 0 -25 6 -27 24 -2 13 1
28 7 34 16 16 14 27 -4 27 -9 0 -18 -6 -21 -14z"></path>
<path d="M4945 2100 c-3 -5 -1 -10 4 -10 6 0 11 5 11 10 0 6 -2 10 -4 10 -3 0
-8 -4 -11 -10z"></path>
<path d="M5025 2100 c-3 -5 1 -10 10 -10 9 0 13 5 10 10 -3 6 -8 10 -10 10 -2
0 -7 -4 -10 -10z"></path>
<path d="M5070 2097 c0 -22 11 -27 26 -12 19 19 18 25 -6 25 -11 0 -20 -6 -20
-13z"></path>
<path d="M5140 2106 c0 -4 6 -15 12 -26 24 -37 -9 -63 -62 -49 -8 2 -15 -3
-15 -11 0 -11 12 -15 50 -15 l50 0 0 50 c0 39 -4 50 -17 53 -10 2 -18 1 -18
-2z"></path>
<path d="M5202 2058 l3 -53 50 0 50 0 0 50 0 50 -53 3 -53 3 3 -53z m73 2 c0
-18 -6 -26 -23 -28 -13 -2 -25 3 -28 12 -10 26 4 48 28 44 17 -2 23 -10 23
-28z"></path>
<path d="M5335 2100 c-3 -5 -1 -10 4 -10 6 0 11 5 11 10 0 6 -2 10 -4 10 -3 0
-8 -4 -11 -10z"></path>
<path d="M5410 2100 c0 -5 5 -10 10 -10 6 0 10 5 10 10 0 6 -4 10 -10 10 -5 0
-10 -4 -10 -10z"></path>
<path d="M5460 2055 l0 -56 53 3 52 3 0 50 0 50 -52 3 -53 3 0 -56z m75 5 c0
-29 -32 -41 -41 -16 -9 24 4 48 23 44 12 -2 18 -12 18 -28z"></path>
<path d="M5590 2055 l0 -54 118 2 117 2 0 50 0 50 -117 2 -118 2 0 -54z m84
12 c9 -15 7 -21 -9 -33 -10 -8 -24 -13 -29 -11 -17 6 -29 34 -23 51 9 22 46
17 61 -7z m121 -7 c0 -18 -6 -26 -23 -28 -13 -2 -25 3 -28 12 -10 26 4 48 28
44 17 -2 23 -10 23 -28z m-75 -10 c0 -5 -4 -10 -10 -10 -5 0 -10 5 -10 10 0 6
5 10 10 10 6 0 10 -4 10 -10z"></path>
<path d="M5850 2055 l0 -54 118 2 117 2 0 50 0 50 -117 2 -118 2 0 -54z m81
19 c17 -21 0 -49 -32 -49 -24 0 -36 23 -25 51 7 19 40 18 57 -2z m127 -17 c4
-32 -21 -46 -49 -29 -10 7 -26 12 -34 12 -8 0 -15 9 -15 21 0 15 4 19 19 14
11 -3 22 -1 26 5 4 6 17 10 28 8 16 -2 23 -11 25 -31z"></path>
<path d="M6112 2057 l3 -52 70 -1 c80 0 90 2 75 21 -6 8 -10 24 -8 37 3 20 8
23 46 22 27 0 41 3 39 10 -2 7 -46 12 -116 13 l-112 2 3 -52z m83 3 c0 -20 -6
-26 -28 -28 -18 -2 -29 2 -33 12 -11 28 4 48 33 44 22 -2 28 -8 28 -28z"></path>
<path d="M6364 2095 c-3 -7 -4 -30 -2 -51 l3 -39 318 -2 317 -1 0 53 0 53
-316 0 c-247 0 -317 -3 -320 -13z m126 -40 c0 -19 -4 -35 -10 -35 -5 0 -10 16
-10 35 0 19 5 35 10 35 6 0 10 -16 10 -35z m260 5 c0 -11 -4 -20 -10 -20 -5 0
-10 9 -10 20 0 11 5 20 10 20 6 0 10 -9 10 -20z m-320 -5 c0 -8 -4 -15 -9 -15
-13 0 -22 16 -14 24 11 11 23 6 23 -9z m264 -6 c-3 -5 -10 -7 -15 -3 -5 3 -7
10 -3 15 3 5 10 7 15 3 5 -3 7 -10 3 -15z"></path>
<path d="M2470 2025 c0 -16 27 -32 37 -21 7 7 -16 36 -28 36 -5 0 -9 -7 -9
-15z"></path>
<path d="M2085 2020 c-3 -6 1 -13 10 -16 19 -8 30 0 20 15 -8 14 -22 14 -30 1z"></path>
<path d="M2430 2020 c0 -5 5 -10 10 -10 6 0 10 5 10 10 0 6 -4 10 -10 10 -5 0
-10 -4 -10 -10z"></path>
<path d="M3465 2019 c-4 -6 -5 -13 -2 -16 7 -7 27 6 27 18 0 12 -17 12 -25 -2z"></path>
<path d="M3595 2019 c-4 -6 -5 -13 -2 -16 7 -7 27 6 27 18 0 12 -17 12 -25 -2z"></path>
<path d="M4032 2019 c2 -7 10 -15 17 -17 8 -3 12 1 9 9 -2 7 -10 15 -17 17 -8
3 -12 -1 -9 -9z"></path>
<path d="M4120 2014 c0 -8 5 -12 10 -9 6 3 10 10 10 16 0 5 -4 9 -10 9 -5 0
-10 -7 -10 -16z"></path>
<path d="M4423 2015 c2 -5 25 -10 52 -10 27 0 50 5 52 10 2 6 -20 10 -52 10
-32 0 -54 -4 -52 -10z"></path>
<path d="M4680 2020 c0 -13 28 -25 38 -16 3 4 0 11 -8 16 -20 13 -30 12 -30 0z"></path>
<path d="M4763 2023 c-18 -6 -16 -23 1 -23 17 0 30 16 19 23 -5 2 -14 2 -20 0z"></path>
<path d="M6315 2019 c-4 -6 -5 -13 -2 -16 7 -7 27 6 27 18 0 12 -17 12 -25 -2z"></path>
<path d="M1695 2010 c3 -5 13 -10 21 -10 8 0 14 5 14 10 0 6 -9 10 -21 10 -11
0 -17 -4 -14 -10z"></path>
<path d="M1760 2010 c0 -5 7 -10 15 -10 8 0 15 5 15 10 0 6 -7 10 -15 10 -8 0
-15 -4 -15 -10z"></path>
<path d="M2540 2010 c0 -5 6 -10 14 -10 8 0 18 5 21 10 3 6 -3 10 -14 10 -12
0 -21 -4 -21 -10z"></path>
<path d="M3390 2010 c0 -5 7 -10 15 -10 8 0 15 5 15 10 0 6 -7 10 -15 10 -8 0
-15 -4 -15 -10z"></path>
<path d="M3515 2010 c3 -5 8 -10 11 -10 2 0 4 5 4 10 0 6 -5 10 -11 10 -5 0
-7 -4 -4 -10z"></path>
<path d="M4945 2010 c3 -5 8 -10 11 -10 2 0 4 5 4 10 0 6 -5 10 -11 10 -5 0
-7 -4 -4 -10z"></path>
<path d="M0 1925 l0 -53 705 0 705 1 0 54 0 54 -52 -3 -53 -3 -3 -42 c-4 -56
-22 -55 -22 1 l0 44 -640 0 -640 0 0 -53z m140 0 c0 -19 -4 -35 -10 -35 -5 0
-10 16 -10 35 0 19 5 35 10 35 6 0 10 -16 10 -35z m390 0 c0 -19 -4 -35 -10
-35 -5 0 -10 16 -10 35 0 19 5 35 10 35 6 0 10 -16 10 -35z m510 0 c0 -19 -4
-35 -10 -35 -5 0 -10 16 -10 35 0 19 5 35 10 35 6 0 10 -16 10 -35z m344 11
c9 -13 7 -20 -9 -32 -10 -8 -24 -13 -30 -11 -15 5 -18 36 -4 53 14 17 29 14
43 -10z m-1169 -11 c0 -22 -31 -33 -47 -17 -17 17 -1 44 24 40 15 -2 23 -10
23 -23z m185 -5 c0 -25 -18 -36 -26 -16 -8 21 3 49 16 41 5 -3 10 -15 10 -25z
m66 19 c10 -17 -13 -36 -27 -22 -12 12 -4 33 11 33 5 0 12 -5 16 -11z m131 -5
c8 -21 -13 -42 -28 -27 -13 13 -5 43 11 43 6 0 13 -7 17 -16z m261 -7 c4 -20
-25 -34 -40 -19 -15 15 -1 44 19 40 10 -2 19 -11 21 -21z m52 3 c0 -11 -4 -20
-10 -20 -5 0 -10 9 -10 20 0 11 5 20 10 20 6 0 10 -9 10 -20z m85 -5 c0 -22
-31 -33 -47 -17 -17 17 -1 44 24 40 15 -2 23 -10 23 -23z m130 0 c0 -22 -31
-33 -47 -17 -17 17 -1 44 24 40 15 -2 23 -10 23 -23z m133 -2 c3 -19 -1 -23
-22 -23 -28 0 -41 14 -32 36 9 24 50 13 54 -13z m-923 8 c7 -12 -12 -24 -25
-16 -11 7 -4 25 10 25 5 0 11 -4 15 -9z m835 -6 c0 -8 -4 -15 -10 -15 -5 0
-10 7 -10 15 0 8 5 15 10 15 6 0 10 -7 10 -15z"></path>
<path d="M1434 1966 c-3 -8 -4 -31 -2 -52 l3 -39 50 0 50 0 3 53 3 52 -51 0
c-34 0 -52 -5 -56 -14z m74 -39 c4 -20 -25 -34 -40 -19 -15 15 -1 44 19 40 10
-2 19 -11 21 -21z"></path>
<path d="M1564 1966 c-3 -8 -4 -31 -2 -52 l3 -39 50 0 50 0 3 53 3 52 -51 0
c-34 0 -52 -5 -56 -14z m81 -41 c0 -22 -31 -33 -47 -17 -17 17 -1 44 24 40 15
-2 23 -10 23 -23z"></path>
<path d="M1694 1966 c-3 -8 -4 -31 -2 -52 l3 -39 50 0 50 0 3 48 c2 36 -1 49
-13 53 -22 9 -30 -2 -16 -20 21 -25 10 -61 -18 -61 -32 0 -50 29 -33 55 16 26
15 30 -3 30 -9 0 -18 -6 -21 -14z"></path>
<path d="M1824 1966 c-3 -8 -4 -31 -2 -52 l3 -39 53 -3 52 -3 0 55 0 56 -50 0
c-34 0 -52 -5 -56 -14z m81 -36 c0 -20 -6 -26 -28 -28 -32 -4 -46 20 -26 44
19 24 54 14 54 -16z"></path>
<path d="M1955 1971 c-6 -11 9 -23 19 -14 9 9 7 23 -3 23 -6 0 -12 -4 -16 -9z"></path>
<path d="M2084 1966 c-3 -8 -4 -31 -2 -52 l3 -39 50 0 50 0 3 48 c2 36 -1 49
-13 53 -23 9 -28 -1 -13 -25 17 -27 0 -56 -33 -56 -27 0 -39 36 -20 59 11 13
5 26 -11 26 -5 0 -11 -6 -14 -14z"></path>
<path d="M2344 1967 c-3 -8 -4 -32 -2 -53 l3 -39 50 0 50 0 0 50 0 50 -48 3
c-34 2 -49 -1 -53 -11z m81 -37 c0 -18 -6 -26 -23 -28 -24 -4 -38 18 -28 44 3
9 15 14 28 12 17 -2 23 -10 23 -28z"></path>
<path d="M2480 1970 c0 -5 5 -10 10 -10 6 0 10 5 10 10 0 6 -4 10 -10 10 -5 0
-10 -4 -10 -10z"></path>
<path d="M2560 1970 c0 -5 5 -10 11 -10 5 0 7 5 4 10 -3 6 -8 10 -11 10 -2 0
-4 -4 -4 -10z"></path>
<path d="M2604 1967 c-3 -8 -4 -32 -2 -53 l3 -39 50 0 50 0 0 50 0 50 -48 3
c-34 2 -49 -1 -53 -11z m80 -29 c8 -14 7 -21 -6 -34 -30 -30 -75 9 -48 42 16
18 39 15 54 -8z"></path>
<path d="M2864 1967 c-3 -8 -4 -32 -2 -53 l3 -39 50 0 50 0 0 50 0 50 -48 3
c-34 2 -49 -1 -53 -11z m74 -40 c4 -20 -25 -34 -40 -19 -15 15 -1 44 19 40 10
-2 19 -11 21 -21z"></path>
<path d="M3124 1967 c-3 -8 -4 -32 -2 -53 l3 -39 50 0 50 0 0 50 0 50 -48 3
c-34 2 -49 -1 -53 -11z m81 -42 c0 -25 -4 -30 -24 -30 -32 0 -49 28 -31 50 7
9 23 15 34 13 16 -2 21 -10 21 -33z"></path>
<path d="M3254 1966 c-3 -8 -4 -31 -2 -52 3 -39 3 -39 51 -42 36 -2 49 1 53
13 9 22 -2 30 -20 16 -26 -21 -61 -9 -64 22 -2 18 2 29 12 33 9 3 16 10 16 15
0 15 -40 10 -46 -5z"></path>
<path d="M3332 1969 c2 -7 10 -15 17 -17 8 -3 12 1 9 9 -2 7 -10 15 -17 17 -8
3 -12 -1 -9 -9z"></path>
<path d="M3383 1965 c-8 -22 6 -33 17 -15 13 20 12 30 0 30 -6 0 -13 -7 -17
-15z"></path>
<path d="M3462 1969 c2 -7 10 -15 17 -17 8 -3 12 1 9 9 -2 7 -10 15 -17 17 -8
3 -12 -1 -9 -9z"></path>
<path d="M3515 1970 c-3 -5 -1 -10 4 -10 6 0 11 5 11 10 0 6 -2 10 -4 10 -3 0
-8 -4 -11 -10z"></path>
<path d="M3644 1967 c-3 -8 -4 -32 -2 -53 l3 -39 50 0 50 0 0 50 0 50 -48 3
c-34 2 -49 -1 -53 -11z m74 -40 c2 -9 -4 -20 -13 -23 -20 -8 -50 19 -40 36 10
17 49 8 53 -13z"></path>
<path d="M3904 1967 c-3 -8 -4 -32 -2 -53 l3 -39 50 0 50 0 0 50 0 50 -48 3
c-34 2 -49 -1 -53 -11z m74 -36 c6 -37 -14 -49 -40 -24 -18 19 -19 24 -8 38
18 22 44 15 48 -14z"></path>
<path d="M4294 1967 c-3 -8 -4 -32 -2 -53 l3 -39 50 0 50 0 0 50 0 50 -48 3
c-34 2 -49 -1 -53 -11z m74 -40 c4 -20 -25 -34 -40 -19 -15 15 -1 44 19 40 10
-2 19 -11 21 -21z"></path>
<path d="M4427 1974 c-15 -15 -5 -21 36 -20 40 1 42 0 42 -29 0 -29 -2 -30
-43 -29 -27 0 -41 -3 -39 -10 2 -6 26 -11 53 -11 l49 0 0 50 0 50 -45 3 c-25
2 -49 0 -53 -4z"></path>
<path d="M4554 1966 c-3 -8 -4 -31 -2 -52 l3 -39 50 0 50 0 0 49 c0 27 -5 51
-11 53 -7 2 -10 -12 -10 -39 1 -41 0 -43 -29 -43 -29 0 -30 2 -29 43 1 41 -11
56 -22 28z"></path>
<path d="M4684 1966 c-3 -8 -4 -31 -2 -52 2 -32 7 -40 26 -42 25 -4 30 13 7
22 -17 6 -20 51 -5 61 15 9 12 25 -5 25 -9 0 -18 -6 -21 -14z"></path>
<path d="M4760 1970 c0 -5 5 -10 10 -10 6 0 10 5 10 10 0 6 -4 10 -10 10 -5 0
-10 -4 -10 -10z"></path>
<path d="M4810 1936 c0 -26 0 -49 0 -53 0 -5 24 -8 53 -8 l52 0 0 50 0 50 -52
3 -53 3 0 -45z m80 9 c18 -21 5 -45 -25 -45 -27 0 -41 20 -31 45 7 19 40 19
56 0z"></path>
<path d="M4942 1928 l3 -53 50 0 50 0 0 50 0 50 -53 3 -53 3 3 -53z m73 2 c0
-18 -6 -26 -23 -28 -13 -2 -25 3 -28 12 -10 26 4 48 28 44 17 -2 23 -10 23
-28z"></path>
<path d="M5074 1967 c-3 -8 -4 -32 -2 -53 l3 -39 50 0 50 0 0 50 0 50 -48 3
c-34 2 -49 -1 -53 -11z m74 -33 c4 -29 -23 -51 -43 -34 -16 13 -20 42 -8 54
14 14 48 1 51 -20z"></path>
<path d="M5334 1967 c-3 -8 -4 -32 -2 -53 l3 -39 50 0 50 0 0 50 0 50 -48 3
c-34 2 -49 -1 -53 -11z m66 -22 c17 -20 5 -45 -20 -45 -11 0 -23 7 -26 15 -6
15 11 45 26 45 4 0 13 -7 20 -15z"></path>
<path d="M5462 1928 l3 -53 50 0 50 0 0 50 0 50 -53 3 -53 3 3 -53z m68 17
c17 -20 5 -45 -20 -45 -11 0 -23 7 -26 15 -6 15 11 45 26 45 4 0 13 -7 20 -15z"></path>
<path d="M5592 1926 l3 -51 245 0 245 0 3 52 3 51 -251 0 -251 0 3 -52z m73 4
c0 -18 -6 -26 -23 -28 -27 -4 -40 22 -22 44 19 22 45 13 45 -16z m185 0 c0
-16 -4 -30 -10 -30 -5 0 -10 14 -10 30 0 17 5 30 10 30 6 0 10 -13 10 -30z
m-55 -5 c0 -22 -31 -33 -47 -17 -17 17 -1 44 24 40 15 -2 23 -10 23 -23z m130
0 c0 -22 -31 -33 -47 -17 -17 17 -1 44 24 40 15 -2 23 -10 23 -23z m55 0 c0
-14 -4 -25 -10 -25 -5 0 -10 11 -10 25 0 14 5 25 10 25 6 0 10 -11 10 -25z
m64 -6 c-3 -5 -10 -7 -15 -3 -5 3 -7 10 -3 15 3 5 10 7 15 3 5 -3 7 -10 3 -15z"></path>
<path d="M6114 1966 c-3 -8 -4 -31 -2 -52 l3 -39 173 0 c96 0 173 4 175 9 1 5
-24 9 -55 9 l-58 0 0 32 0 33 60 -2 c42 -1 60 2 60 11 0 9 -30 12 -117 10
l-118 -2 -3 -41 c-3 -41 -3 -41 -44 -40 -44 1 -66 21 -55 50 5 13 16 17 39 14
19 -2 33 2 35 10 7 18 -86 17 -93 -2z m181 -35 c3 -5 1 -12 -5 -16 -5 -3 -10
1 -10 9 0 18 6 21 15 7z"></path>
<path d="M6494 1965 c-3 -7 -4 -30 -2 -51 l3 -39 183 -2 182 -1 0 53 0 53
-181 0 c-139 0 -182 -3 -185 -13z m60 -46 c-3 -5 -10 -7 -15 -3 -5 3 -7 10 -3
15 3 5 10 7 15 3 5 -3 7 -10 3 -15z m206 6 c0 -8 -4 -15 -10 -15 -5 0 -10 7
-10 15 0 8 5 15 10 15 6 0 10 -7 10 -15z m62 0 c0 -5 -5 -11 -11 -13 -6 -2
-11 4 -11 13 0 9 5 15 11 13 6 -2 11 -8 11 -13z"></path>
<path d="M6882 1928 l3 -53 58 -3 57 -3 0 56 0 55 -61 0 -60 0 3 -52z"></path>
<path d="M1956 1893 c-3 -3 -3 -10 0 -14 7 -12 34 -11 34 0 0 11 -26 22 -34
14z"></path>
<path d="M3380 1890 c0 -5 5 -10 10 -10 6 0 10 5 10 10 0 6 -4 10 -10 10 -5 0
-10 -4 -10 -10z"></path>
<path d="M5206 1893 c-3 -3 -3 -10 0 -14 7 -12 34 -11 34 0 0 11 -26 22 -34
14z"></path>
<path d="M2475 1880 c3 -5 10 -10 16 -10 5 0 9 5 9 10 0 6 -7 10 -16 10 -8 0
-12 -4 -9 -10z"></path>
<path d="M4750 1880 c0 -5 7 -10 15 -10 8 0 15 5 15 10 0 6 -7 10 -15 10 -8 0
-15 -4 -15 -10z"></path>
<path d="M5270 1880 c0 -5 7 -10 15 -10 8 0 15 5 15 10 0 6 -7 10 -15 10 -8 0
-15 -4 -15 -10z"></path>
<path d="M0 1830 c0 -15 8 -19 38 -22 20 -2 37 -7 37 -13 0 -5 -17 -11 -37
-13 -29 -2 -38 -8 -38 -22 0 -17 13 -18 253 -17 l252 2 0 50 0 50 -117 2 -118
2 0 -44 c0 -57 -18 -59 -22 -2 l-3 42 -122 2 c-115 2 -123 1 -123 -17z m140
-30 c0 -11 -4 -20 -10 -20 -5 0 -10 9 -10 20 0 11 5 20 10 20 6 0 10 -9 10
-20z m66 9 c10 -17 -13 -36 -27 -22 -12 12 -4 33 11 33 5 0 12 -5 16 -11z
m139 -14 c0 -22 -31 -33 -47 -17 -17 17 -1 44 24 40 15 -2 23 -10 23 -23z
m121 14 c10 -17 -13 -36 -27 -22 -12 12 -4 33 11 33 5 0 12 -5 16 -11z"></path>
<path d="M530 1795 l0 -54 178 2 177 2 3 52 3 51 -181 0 -180 0 0 -53z m75 5
c0 -18 -6 -26 -23 -28 -27 -4 -40 22 -22 44 19 22 45 13 45 -16z m133 -3 c4
-20 -25 -34 -40 -19 -15 15 -1 44 19 40 10 -2 19 -11 21 -21z m120 0 c2 -9 -4
-20 -13 -23 -20 -8 -50 19 -40 36 10 17 49 8 53 -13z m-198 3 c0 -5 -4 -10
-10 -10 -5 0 -10 5 -10 10 0 6 5 10 10 10 6 0 10 -4 10 -10z"></path>
<path d="M914 1836 c-3 -8 -4 -31 -2 -52 l3 -39 78 0 c50 -1 76 3 74 10 -3 5
-14 9 -26 8 -18 -2 -21 2 -21 33 0 30 3 34 19 29 19 -6 51 3 51 14 0 4 -38 8
-85 9 -65 1 -87 -1 -91 -12z m74 -39 c4 -20 -25 -34 -40 -19 -15 15 -1 44 19
40 10 -2 19 -11 21 -21z"></path>
<path d="M1122 1839 c2 -6 8 -10 13 -10 5 0 11 4 13 10 2 6 -4 11 -13 11 -9 0
-15 -5 -13 -11z"></path>
<path d="M1177 1843 c-4 -3 -7 -24 -7 -45 0 -31 -4 -38 -16 -36 -10 2 -19 -2
-21 -8 -2 -7 29 -11 97 -11 68 0 99 4 97 11 -2 6 -14 10 -26 9 -18 -2 -21 2
-21 33 0 28 3 35 15 30 16 -6 45 2 45 13 0 9 -154 13 -163 4z m78 -43 c0 -18
-6 -26 -23 -28 -24 -4 -38 18 -28 44 3 9 15 14 28 12 17 -2 23 -10 23 -28z"></path>
<path d="M1382 1839 c2 -6 8 -10 13 -10 5 0 11 4 13 10 2 6 -4 11 -13 11 -9 0
-15 -5 -13 -11z"></path>
<path d="M1434 1837 c-3 -8 -4 -32 -2 -53 l3 -39 50 0 50 0 0 50 0 50 -48 3
c-34 2 -49 -1 -53 -11z m76 -22 c18 -21 5 -45 -25 -45 -27 0 -41 20 -31 45 7
19 40 19 56 0z"></path>
<path d="M1694 1836 c-3 -8 -4 -31 -2 -52 l3 -39 50 0 50 0 3 53 3 52 -51 0
c-34 0 -52 -5 -56 -14z m71 -36 c0 -29 -32 -41 -41 -16 -9 24 4 48 23 44 12
-2 18 -12 18 -28z"></path>
<path d="M1955 1841 c-6 -11 9 -23 19 -14 9 9 7 23 -3 23 -6 0 -12 -4 -16 -9z"></path>
<path d="M2170 1840 c0 -5 5 -10 11 -10 5 0 7 5 4 10 -3 6 -8 10 -11 10 -2 0
-4 -4 -4 -10z"></path>
<path d="M2215 1840 c-3 -5 -1 -10 4 -10 6 0 11 5 11 10 0 6 -2 10 -4 10 -3 0
-8 -4 -11 -10z"></path>
<path d="M2300 1840 c0 -5 5 -10 11 -10 5 0 7 5 4 10 -3 6 -8 10 -11 10 -2 0
-4 -4 -4 -10z"></path>
<path d="M2345 1839 c-10 -15 3 -25 16 -12 7 7 7 13 1 17 -6 3 -14 1 -17 -5z"></path>
<path d="M2426 1842 c-3 -6 -1 -14 5 -17 15 -10 25 3 12 16 -7 7 -13 7 -17 1z"></path>
<path d="M2475 1839 c-4 -6 -5 -13 -2 -16 7 -7 27 6 27 18 0 12 -17 12 -25 -2z"></path>
<path d="M2560 1840 c0 -5 5 -10 11 -10 5 0 7 5 4 10 -3 6 -8 10 -11 10 -2 0
-4 -4 -4 -10z"></path>
<path d="M2995 1839 c-10 -15 3 -25 16 -12 7 7 7 13 1 17 -6 3 -14 1 -17 -5z"></path>
<path d="M3079 1845 c0 -6 -1 -26 -2 -45 -2 -30 -6 -35 -30 -38 -18 -2 -29 2
-33 12 -9 24 -26 19 -22 -6 3 -20 9 -23 53 -23 l50 0 3 44 c2 24 -2 49 -7 54
-6 6 -11 7 -12 2z"></path>
<path d="M3124 1837 c-3 -8 -4 -32 -2 -53 l3 -39 50 0 50 0 0 50 0 50 -48 3
c-34 2 -49 -1 -53 -11z m81 -42 c0 -27 -3 -30 -30 -30 -21 0 -31 5 -33 18 -6
33 6 49 35 45 24 -3 28 -8 28 -33z"></path>
<path d="M3256 1843 c-9 -9 -7 -33 3 -33 12 0 22 28 12 34 -5 3 -11 3 -15 -1z"></path>
<path d="M3340 1840 c0 -5 5 -10 11 -10 5 0 7 5 4 10 -3 6 -8 10 -11 10 -2 0
-4 -4 -4 -10z"></path>
<path d="M3384 1837 c-3 -8 -4 -32 -2 -53 l3 -39 50 0 50 0 0 50 0 50 -48 3
c-34 2 -49 -1 -53 -11z m81 -36 c0 -8 -8 -19 -17 -25 -22 -13 -44 5 -34 29 7
20 51 16 51 -4z"></path>
<path d="M3514 1837 c-3 -8 -4 -32 -2 -53 l3 -39 50 0 50 0 0 50 0 50 -48 3
c-34 2 -49 -1 -53 -11z m66 -22 c17 -20 5 -45 -20 -45 -11 0 -23 7 -26 15 -6
15 11 45 26 45 4 0 13 -7 20 -15z"></path>
<path d="M3644 1837 c-3 -8 -4 -32 -2 -53 l3 -39 50 0 50 0 0 50 0 50 -48 3
c-34 2 -49 -1 -53 -11z m71 -37 c0 -16 -6 -26 -18 -28 -19 -4 -32 20 -23 44 9
25 41 13 41 -16z"></path>
<path d="M3904 1837 c-3 -8 -4 -32 -2 -53 l3 -39 50 0 50 0 0 50 0 50 -48 3
c-34 2 -49 -1 -53 -11z m74 -40 c4 -20 -25 -34 -40 -19 -15 15 -1 44 19 40 10
-2 19 -11 21 -21z"></path>
<path d="M4164 1837 c-3 -8 -4 -32 -2 -53 l3 -39 50 0 50 0 0 50 0 50 -48 3
c-34 2 -49 -1 -53 -11z m74 -40 c4 -20 -25 -34 -40 -19 -15 15 -1 44 19 40 10
-2 19 -11 21 -21z"></path>
<path d="M4295 1840 c-3 -5 -1 -10 4 -10 6 0 11 5 11 10 0 6 -2 10 -4 10 -3 0
-8 -4 -11 -10z"></path>
<path d="M4373 1836 c4 -10 7 -36 7 -59 0 -29 3 -38 11 -30 15 15 7 95 -10
101 -10 3 -12 0 -8 -12z"></path>
<path d="M4554 1837 c-3 -8 -4 -32 -2 -53 l3 -39 50 0 50 0 0 50 0 50 -48 3
c-34 2 -49 -1 -53 -11z m81 -42 c0 -27 -3 -30 -30 -30 -21 0 -31 5 -33 18 -6
33 6 49 35 45 24 -3 28 -8 28 -33z"></path>
<path d="M4687 1843 c-9 -8 -9 -43 -1 -43 8 0 33 32 34 43 0 9 -24 9 -33 0z"></path>
<path d="M4750 1841 c0 -10 30 -24 37 -17 3 3 2 9 -2 15 -8 13 -35 15 -35 2z"></path>
<path d="M4896 1842 c-3 -6 -1 -14 5 -17 15 -10 25 3 12 16 -7 7 -13 7 -17 1z"></path>
<path d="M5077 1844 c-4 -4 -7 -29 -7 -56 l0 -49 53 3 52 3 0 50 0 50 -45 3
c-25 2 -49 0 -53 -4z m68 -44 c0 -18 -6 -26 -23 -28 -27 -4 -40 22 -22 44 19
22 45 13 45 -16z"></path>
<path d="M5270 1840 c0 -5 7 -10 15 -10 8 0 15 5 15 10 0 6 -7 10 -15 10 -8 0
-15 -4 -15 -10z"></path>
<path d="M5334 1837 c-3 -8 -4 -32 -2 -53 l3 -39 50 0 50 0 0 50 0 50 -48 3
c-34 2 -49 -1 -53 -11z m74 -40 c4 -20 -25 -34 -40 -19 -15 15 -1 44 19 40 10
-2 19 -11 21 -21z"></path>
<path d="M5464 1835 c-3 -7 -4 -30 -2 -51 l3 -39 180 0 180 0 0 50 0 50 -52 3
-53 3 0 -45 c0 -58 -18 -60 -22 -3 l-3 42 -113 2 c-86 1 -114 -1 -118 -12z
m80 -28 c9 -15 7 -21 -9 -33 -22 -16 -34 -14 -49 8 -7 12 -6 21 4 33 16 19 39
16 54 -8z m116 8 c17 -20 5 -45 -20 -45 -11 0 -23 7 -26 15 -6 15 11 45 26 45
4 0 13 -7 20 -15z m130 0 c17 -20 5 -45 -20 -45 -11 0 -23 7 -26 15 -6 15 11
45 26 45 4 0 13 -7 20 -15z m-200 -20 c0 -8 -4 -15 -10 -15 -5 0 -10 7 -10 15
0 8 5 15 10 15 6 0 10 -7 10 -15z"></path>
<path d="M5850 1796 l0 -55 118 2 117 2 0 50 0 50 -52 3 -53 3 0 -40 c0 -51
-18 -54 -22 -3 l-3 37 -52 3 -53 3 0 -55z m81 18 c17 -21 0 -49 -32 -49 -24 0
-36 23 -25 51 7 19 40 18 57 -2z m124 -19 c0 -25 -4 -30 -25 -30 -16 0 -26 6
-28 18 -6 30 6 49 30 45 18 -2 23 -9 23 -33z"></path>
<path d="M6114 1835 c-3 -7 -4 -30 -2 -51 l3 -39 78 -1 c77 0 86 3 66 23 -6 6
-9 21 -7 34 3 21 8 24 46 23 28 0 42 4 42 12 0 18 -219 18 -226 -1z m76 -20
c18 -21 5 -45 -25 -45 -14 0 -28 7 -31 15 -7 17 12 45 31 45 7 0 18 -7 25 -15z"></path>
<path d="M6364 1835 c-3 -7 -4 -30 -2 -51 l3 -39 318 -2 c302 -1 317 0 317 17
0 14 -9 20 -35 22 -48 4 -49 22 -2 26 29 3 37 7 37 23 0 18 -6 20 -57 17 l-58
-3 -3 -42 c-4 -57 -22 -55 -22 1 l0 44 -246 0 c-191 0 -247 -3 -250 -13z m126
-35 c0 -11 -4 -20 -10 -20 -5 0 -10 9 -10 20 0 11 5 20 10 20 6 0 10 -9 10
-20z m-55 1 c7 -12 -12 -24 -25 -16 -11 7 -4 25 10 25 5 0 11 -4 15 -9z m125
-6 c0 -8 -4 -15 -9 -15 -13 0 -22 16 -14 24 11 11 23 6 23 -9z m130 0 c0 -8
-4 -15 -10 -15 -5 0 -10 7 -10 15 0 8 5 15 10 15 6 0 10 -7 10 -15z m130 0 c0
-8 -4 -15 -10 -15 -5 0 -10 7 -10 15 0 8 5 15 10 15 6 0 10 -7 10 -15z"></path>
<path d="M2950 1830 c0 -5 5 -10 10 -10 6 0 10 5 10 10 0 6 -4 10 -10 10 -5 0
-10 -4 -10 -10z"></path>
<path d="M2340 1765 c0 -16 27 -32 37 -21 7 7 -16 36 -28 36 -5 0 -9 -7 -9
-15z"></path>
<path d="M2420 1765 c-7 -9 -10 -18 -7 -21 10 -11 37 5 37 21 0 19 -14 19 -30
0z"></path>
<path d="M2470 1765 c0 -16 27 -32 37 -21 7 7 -16 36 -28 36 -5 0 -9 -7 -9
-15z"></path>
<path d="M2950 1759 c0 -11 5 -17 10 -14 6 3 10 13 10 21 0 8 -4 14 -10 14 -5
0 -10 -9 -10 -21z"></path>
<path d="M4682 1763 c3 -14 14 -18 52 -18 29 0 51 5 53 12 3 8 -8 10 -35 6
-24 -3 -42 -1 -46 6 -11 17 -28 13 -24 -6z"></path>
<path d="M4897 1765 c-8 -19 2 -24 33 -14 16 4 19 7 8 8 -10 1 -18 6 -18 11 0
15 -17 12 -23 -5z"></path>
<path d="M1385 1759 c-10 -15 3 -25 16 -12 7 7 7 13 1 17 -6 3 -14 1 -17 -5z"></path>
<path d="M1952 1759 c2 -7 10 -15 17 -17 8 -3 12 1 9 9 -2 7 -10 15 -17 17 -8
3 -12 -1 -9 -9z"></path>
<path d="M2086 1762 c-3 -6 -1 -14 5 -17 15 -10 25 3 12 16 -7 7 -13 7 -17 1z"></path>
<path d="M2165 1759 c-4 -6 -5 -13 -2 -16 7 -7 27 6 27 18 0 12 -17 12 -25 -2z"></path>
<path d="M2300 1760 c0 -5 5 -10 10 -10 6 0 10 5 10 10 0 6 -4 10 -10 10 -5 0
-10 -4 -10 -10z"></path>
<path d="M2862 1761 c2 -7 7 -12 11 -12 12 1 9 15 -3 20 -7 2 -11 -2 -8 -8z"></path>
<path d="M3250 1760 c0 -5 5 -10 10 -10 6 0 10 5 10 10 0 6 -4 10 -10 10 -5 0
-10 -4 -10 -10z"></path>
<path d="M4816 1763 c-11 -11 -6 -23 9 -23 8 0 15 4 15 9 0 13 -16 22 -24 14z"></path>
<path d="M6313 1763 c-18 -6 -16 -23 1 -23 17 0 30 16 19 23 -5 2 -14 2 -20 0z"></path>
<path d="M1910 1749 c0 -5 5 -7 10 -4 6 3 10 8 10 11 0 2 -4 4 -10 4 -5 0 -10
-5 -10 -11z"></path>
<path d="M2560 1750 c0 -5 5 -10 10 -10 6 0 10 5 10 10 0 6 -4 10 -10 10 -5 0
-10 -4 -10 -10z"></path>
<path d="M2605 1750 c3 -5 8 -10 11 -10 2 0 4 5 4 10 0 6 -5 10 -11 10 -5 0
-7 -4 -4 -10z"></path>
<path d="M4295 1750 c3 -5 8 -10 11 -10 2 0 4 5 4 10 0 6 -5 10 -11 10 -5 0
-7 -4 -4 -10z"></path>
<path d="M0 1662 l0 -55 70 5 c39 3 73 1 76 -4 8 -13 -2 -21 -29 -23 -19 -1
-22 -7 -22 -46 l0 -44 85 -4 c167 -8 237 -9 347 -4 l112 6 -1 99 c0 94 4 119
18 105 4 -3 6 -51 6 -106 l-1 -101 112 3 112 2 1 60 c3 126 4 145 13 145 6 0
11 -19 13 -42 l3 -43 53 -3 52 -3 0 54 0 55 -510 0 -510 0 0 -56z m270 8 c0
-16 -4 -30 -10 -30 -5 0 -10 14 -10 30 0 17 5 30 10 30 6 0 10 -13 10 -30z
m260 -25 c0 -44 -3 -55 -16 -55 -12 0 -15 6 -10 23 3 12 6 37 6 55 0 17 5 32
10 32 6 0 10 -25 10 -55z m-193 29 c8 -21 -13 -42 -28 -27 -13 13 -5 43 11 43
6 0 13 -7 17 -16z m141 -7 c4 -20 -25 -34 -40 -19 -15 15 -1 44 19 40 10 -2
19 -11 21 -21z m130 -5 c4 -28 -24 -40 -45 -19 -21 21 -9 49 19 45 15 -2 24
-11 26 -26z m127 3 c0 -22 -31 -33 -47 -17 -17 17 -1 44 24 40 15 -2 23 -10
23 -23z m123 2 c4 -20 -25 -34 -40 -19 -15 15 -1 44 19 40 10 -2 19 -11 21
-21z m137 -2 c0 -22 -31 -33 -47 -17 -17 17 -1 44 24 40 15 -2 23 -10 23 -23z
m-790 6 c7 -12 -12 -24 -25 -16 -11 7 -4 25 10 25 5 0 11 -4 15 -9z m195 -6
c0 -8 -4 -15 -10 -15 -5 0 -10 7 -10 15 0 8 5 15 10 15 6 0 10 -7 10 -15z
m-260 -5 c0 -5 -4 -10 -10 -10 -5 0 -10 5 -10 10 0 6 5 10 10 10 6 0 10 -4 10
-10z m130 -55 c0 -8 -7 -15 -15 -15 -8 0 -15 7 -15 15 0 8 7 15 15 15 8 0 15
-7 15 -15z m130 0 c0 -8 -7 -15 -15 -15 -8 0 -15 7 -15 15 0 8 7 15 15 15 8 0
15 -7 15 -15z m390 -6 c0 -24 -23 -21 -28 4 -2 10 3 17 12 17 10 0 16 -9 16
-21z m-590 1 c0 -5 -9 -10 -20 -10 -11 0 -20 5 -20 10 0 6 9 10 20 10 11 0 20
-4 20 -10z m670 0 c0 -5 -11 -10 -25 -10 -14 0 -25 5 -25 10 0 6 11 10 25 10
14 0 25 -4 25 -10z m-730 -60 c0 -16 -4 -30 -10 -30 -5 0 -10 14 -10 30 0 17
5 30 10 30 6 0 10 -13 10 -30z m130 0 c0 -10 -5 -22 -10 -25 -13 -8 -24 20
-16 41 8 20 26 9 26 -16z m67 14 c8 -21 -13 -42 -28 -27 -13 13 -5 43 11 43 6
0 13 -7 17 -16z m130 0 c8 -21 -13 -42 -28 -27 -13 13 -5 43 11 43 6 0 13 -7
17 -16z m268 -14 c0 -16 -6 -26 -18 -28 -19 -4 -32 20 -23 44 9 25 41 13 41
-16z m120 0 c0 -16 -6 -26 -18 -28 -19 -4 -32 20 -23 44 9 25 41 13 41 -16z
m-649 9 c10 -17 -13 -36 -27 -22 -12 12 -4 33 11 33 5 0 12 -5 16 -11z m390 0
c10 -17 -13 -36 -27 -22 -12 12 -4 33 11 33 5 0 12 -5 16 -11z m-66 -14 c0 -8
-4 -15 -10 -15 -5 0 -10 7 -10 15 0 8 5 15 10 15 6 0 10 -7 10 -15z"></path>
<path d="M1045 1707 c-2 -6 -3 -57 -2 -112 2 -95 3 -100 25 -103 25 -4 27 0
10 28 -16 25 0 55 28 55 22 0 32 -41 15 -58 -17 -17 -13 -27 9 -27 17 0 20 7
20 40 0 51 18 53 22 3 2 -25 8 -39 19 -41 13 -2 16 5 15 35 -1 32 2 38 22 41
27 4 40 -23 24 -49 -16 -26 -15 -29 9 -29 19 0 20 5 17 70 -1 39 -4 70 -7 70
-2 0 -9 -7 -16 -16 -8 -12 -20 -15 -39 -10 -15 4 -24 11 -21 16 3 6 -5 14 -19
20 -16 6 -26 17 -26 29 0 22 16 36 24 22 6 -9 56 8 56 20 0 3 -41 6 -90 7 -64
1 -92 -2 -95 -11z m70 -47 c0 -16 -6 -26 -18 -28 -19 -4 -32 20 -23 44 9 25
41 13 41 -16z m65 -55 c0 -8 -7 -15 -15 -15 -8 0 -15 7 -15 15 0 8 7 15 15 15
8 0 15 -7 15 -15z"></path>
<path d="M1240 1711 c0 -5 7 -12 16 -15 22 -9 24 -8 24 9 0 8 -9 15 -20 15
-11 0 -20 -4 -20 -9z"></path>
<path d="M1305 1707 c-2 -7 -3 -57 -2 -112 2 -82 5 -100 18 -103 13 -2 16 6
15 40 -1 34 3 43 18 46 11 2 26 -4 34 -14 10 -14 16 -15 19 -6 8 21 23 13 23
-14 0 -20 -4 -24 -19 -19 -12 4 -21 0 -25 -11 -4 -9 -5 -19 -2 -21 2 -2 37 -5
77 -6 l74 -2 0 115 0 115 -113 2 c-81 2 -114 -1 -117 -10z m210 -42 c0 -25 -4
-30 -24 -30 -32 0 -49 28 -31 50 7 9 23 15 34 13 16 -2 21 -10 21 -33z m-128
9 c3 -8 -2 -23 -11 -32 -15 -15 -17 -15 -32 0 -21 21 -11 48 16 48 11 0 23 -7
27 -16z m43 -9 c0 -8 -4 -15 -10 -15 -5 0 -10 7 -10 15 0 8 5 15 10 15 6 0 10
-7 10 -15z m10 -60 c0 -8 -7 -15 -15 -15 -8 0 -15 7 -15 15 0 8 7 15 15 15 8
0 15 -7 15 -15z m-80 -5 c0 -5 -7 -10 -15 -10 -8 0 -15 5 -15 10 0 6 7 10 15
10 8 0 15 -4 15 -10z m157 -36 c9 -24 -10 -49 -38 -49 -27 0 -37 28 -19 50 17
20 49 19 57 -1z"></path>
<path d="M1565 1708 c-2 -7 -3 -87 -2 -178 l2 -165 53 -3 53 -3 -3 52 c-3 61
-26 81 -24 22 1 -34 -2 -38 -24 -38 -22 0 -25 4 -24 35 0 19 -5 38 -10 43 -8
5 -8 9 0 15 5 4 10 23 10 42 -1 29 3 35 19 35 17 0 20 -6 19 -37 -1 -31 2 -38
17 -38 16 0 19 8 19 48 0 59 -6 67 -50 67 -32 0 -34 2 -38 38 -2 21 1 44 7 51
11 13 5 26 -11 26 -5 0 -11 -6 -13 -12z"></path>
<path d="M1824 1706 c-8 -21 0 -89 11 -93 6 -2 10 20 10 52 0 52 -9 71 -21 41z"></path>
<path d="M1955 1710 c-3 -5 1 -10 10 -10 9 0 13 5 10 10 -3 6 -8 10 -10 10 -2
0 -7 -4 -10 -10z"></path>
<path d="M2214 1707 c-3 -8 -4 -32 -2 -53 l3 -39 50 0 50 0 0 50 0 50 -48 3
c-34 2 -49 -1 -53 -11z m84 -33 c4 -25 -22 -49 -43 -40 -22 8 -29 34 -14 52
17 21 53 14 57 -12z"></path>
<path d="M2350 1710 c0 -5 5 -10 10 -10 6 0 10 5 10 10 0 6 -4 10 -10 10 -5 0
-10 -4 -10 -10z"></path>
<path d="M2410 1711 c0 -12 29 -35 36 -28 11 10 -5 37 -21 37 -8 0 -15 -4 -15
-9z"></path>
<path d="M2473 1705 c-3 -9 -3 -19 1 -22 7 -7 36 16 36 28 0 15 -30 10 -37 -6z"></path>
<path d="M2560 1710 c0 -5 5 -10 10 -10 6 0 10 5 10 10 0 6 -4 10 -10 10 -5 0
-10 -4 -10 -10z"></path>
<path d="M2605 1709 c-10 -15 3 -25 16 -12 7 7 7 13 1 17 -6 3 -14 1 -17 -5z"></path>
<path d="M2735 1708 c-2 -7 -3 -87 -2 -178 l2 -165 50 0 c44 0 50 3 53 23 4
25 -1 27 -27 10 -28 -17 -53 -3 -51 29 1 16 1 30 0 33 -1 3 -4 27 -6 54 -4 40
-1 53 16 69 21 18 22 18 35 1 9 -12 13 -40 12 -78 -1 -37 2 -61 9 -63 8 -3 11
36 10 134 l-1 138 -48 3 c-32 2 -49 -1 -52 -10z m83 -32 c5 -21 -17 -66 -31
-66 -25 0 -48 65 -30 84 14 14 58 1 61 -18z"></path>
<path d="M2867 1713 c-9 -15 -6 -223 4 -223 5 0 9 17 9 38 1 37 18 72 37 72
19 0 32 -46 31 -117 0 -76 -11 -98 -45 -91 -12 2 -18 13 -19 33 -1 50 -19 38
-19 -12 l0 -48 50 0 50 0 2 173 c1 144 -1 174 -13 179 -20 8 -30 -5 -16 -19
23 -23 4 -88 -25 -88 -18 0 -36 48 -30 79 6 28 -5 43 -16 24z"></path>
<path d="M2995 1708 c-2 -7 -3 -60 -2 -118 l2 -105 50 0 50 0 0 115 0 115 -48
3 c-32 2 -49 -1 -52 -10z m83 -32 c5 -21 -17 -66 -31 -66 -25 0 -48 65 -30 84
14 14 58 1 61 -18z m-9 -100 c20 -37 11 -61 -24 -61 -24 0 -31 5 -33 23 -3 21
22 60 39 61 3 1 11 -10 18 -23z"></path>
<path d="M3125 1708 c-2 -7 -3 -114 -2 -238 l2 -225 50 0 50 0 1 138 c1 75 -3
137 -7 137 -9 0 -13 -42 -9 -89 2 -29 -19 -71 -35 -71 -21 0 -40 59 -27 81 7
11 8 20 2 24 -15 9 -12 97 4 118 17 22 28 22 44 -3 19 -31 30 -24 28 20 -1 40
-12 53 -22 25 -4 -8 -17 -15 -30 -15 -25 0 -39 30 -32 67 4 22 43 29 64 12 17
-14 29 -6 21 16 -8 19 -95 21 -102 3z m74 -382 c19 -34 11 -61 -18 -61 -34 0
-49 27 -31 59 17 32 33 33 49 2z"></path>
<path d="M3257 1713 c-3 -4 -5 -56 -5 -115 l-1 -108 44 0 44 0 -1 -57 c-1 -34
3 -58 10 -61 8 -2 10 44 9 170 l-2 173 -47 3 c-25 2 -48 -1 -51 -5z m68 -53
c0 -16 -6 -26 -18 -28 -19 -4 -32 20 -23 44 9 25 41 13 41 -16z m0 -115 c0
-23 -5 -31 -22 -33 -19 -3 -23 1 -23 26 0 33 8 44 30 40 9 -2 15 -14 15 -33z"></path>
<path d="M3514 1707 c-3 -8 -4 -32 -2 -53 l3 -39 50 0 50 0 0 50 0 50 -48 3
c-34 2 -49 -1 -53 -11z m66 -22 c15 -18 6 -45 -15 -45 -18 0 -30 24 -21 45 7
19 20 19 36 0z"></path>
<path d="M3774 1707 c-3 -8 -4 -32 -2 -53 l3 -39 50 0 50 0 0 50 0 50 -48 3
c-34 2 -49 -1 -53 -11z m74 -40 c4 -20 -25 -34 -40 -19 -15 15 -1 44 19 40 10
-2 19 -11 21 -21z"></path>
<path d="M4292 1668 l3 -53 50 0 50 0 0 50 0 50 -53 3 -53 3 3 -53z m76 -1 c4
-20 -25 -34 -40 -19 -15 15 -1 44 19 40 10 -2 19 -11 21 -21z"></path>
<path d="M4427 1713 c-3 -4 -5 -56 -5 -115 -1 -81 2 -108 12 -108 8 0 12 14
12 42 -1 34 3 43 18 46 10 2 22 0 28 -6 5 -5 11 -75 14 -156 5 -142 4 -148
-16 -153 -30 -8 -24 -23 9 -23 l29 0 -1 238 -2 237 -47 3 c-25 2 -48 -1 -51
-5z m74 -29 c17 -21 0 -49 -32 -49 -24 0 -36 23 -25 51 7 19 40 18 57 -2z"></path>
<path d="M4554 1707 c-3 -8 -4 -32 -2 -53 l3 -39 50 0 50 0 0 50 0 50 -48 3
c-34 2 -49 -1 -53 -11z m81 -37 c0 -20 -6 -26 -28 -28 -18 -2 -29 2 -33 12
-11 28 4 48 33 44 22 -2 28 -8 28 -28z"></path>
<path d="M4687 1714 c-14 -15 -8 -94 8 -101 22 -8 30 4 16 21 -7 8 -11 25 -9
38 2 18 9 23 33 23 29 0 30 -2 29 -43 0 -27 3 -41 10 -39 6 2 11 26 11 53 l0
49 -45 3 c-25 2 -49 0 -53 -4z"></path>
<path d="M4810 1706 c0 -11 9 -13 40 -9 32 5 41 2 46 -12 12 -29 -10 -50 -50
-49 -23 1 -35 -3 -33 -10 2 -6 25 -11 53 -11 l49 0 0 50 0 50 -52 3 c-41 2
-53 0 -53 -12z"></path>
<path d="M4941 1623 c-1 -54 -2 -107 -3 -118 -3 -18 3 -20 52 -20 l55 0 0 115
0 115 -52 3 -52 3 0 -98z m79 62 c17 -20 -14 -88 -38 -83 -16 3 -28 58 -18 84
7 18 40 18 56 -1z m-2 -138 c4 -20 -25 -34 -40 -19 -15 15 -1 44 19 40 10 -2
19 -11 21 -21z"></path>
<path d="M5150 1710 c0 -5 7 -10 16 -10 8 0 12 5 9 10 -3 6 -10 10 -16 10 -5
0 -9 -4 -9 -10z"></path>
<path d="M5202 1668 l3 -53 50 0 50 0 0 50 0 50 -53 3 -53 3 3 -53z m76 -1 c4
-20 -25 -34 -40 -19 -15 15 -1 44 19 40 10 -2 19 -11 21 -21z"></path>
<path d="M5335 1708 c-2 -7 -3 -58 -2 -113 l2 -100 43 -3 c23 -2 42 -7 42 -12
0 -5 -19 -10 -42 -12 -43 -3 -43 -3 -46 -45 -2 -24 -7 -43 -12 -43 -5 0 -10
19 -12 43 l-3 42 -52 3 -53 3 0 -50 c0 -36 4 -51 13 -51 21 0 27 11 15 30 -16
25 -3 50 27 50 30 0 43 -25 27 -51 -7 -11 -8 -20 -2 -24 22 -14 7 -24 -37 -27
l-48 -3 0 -55 0 -55 55 1 55 0 -1 65 0 65 65 0 66 -1 0 128 c0 123 1 128 20
123 11 -3 36 -6 56 -6 l36 0 -1 -47 c-1 -46 -2 -48 -31 -48 -27 0 -30 3 -31
34 0 19 -6 37 -13 39 -9 3 -11 -10 -9 -49 l3 -54 50 0 50 0 3 43 c2 23 8 42
13 42 6 0 9 -42 7 -102 -1 -57 0 -111 3 -120 8 -28 19 -33 19 -10 0 18 6 22
29 22 26 0 30 -4 36 -40 4 -21 4 -48 0 -59 -4 -15 -1 -20 12 -20 10 0 45 -2
78 -3 l60 -3 -1 65 0 65 141 0 141 0 0 -65 -1 -65 55 0 55 0 -1 65 0 65 76 0
76 0 0 -65 -1 -65 60 1 c33 1 89 3 125 4 36 1 67 1 70 0 3 -1 58 -4 122 -5
l117 -3 0 118 0 119 -52 -2 -52 -2 1 -60 1 -60 -77 0 -77 0 1 60 1 60 -120 0
-120 0 -3 -42 c-4 -57 -22 -55 -22 3 l0 45 -52 -3 c-52 -3 -53 -4 -56 -36 -2
-18 -9 -32 -15 -31 -7 1 -20 -1 -29 -5 -29 -13 -46 0 -50 36 -4 43 -22 38 -26
-7 -2 -19 -7 -35 -12 -35 -5 0 -10 16 -12 35 -4 44 -22 46 -22 2 -1 -26 -6
-33 -24 -35 -13 -2 -30 2 -39 10 -13 10 -17 10 -20 1 -9 -25 -22 -12 -25 25
l-3 37 -52 3 -53 3 0 -35 c0 -45 -18 -47 -22 -3 -4 44 -34 45 -31 1 4 -42 -21
-64 -44 -41 -13 13 -14 21 -5 41 11 25 7 36 -15 36 -9 0 -13 -13 -13 -40 0
-51 -18 -53 -22 -2 -2 30 -7 38 -25 40 -26 4 -28 -1 -11 -27 14 -22 4 -51 -17
-51 -22 0 -31 29 -16 52 10 17 9 20 -8 25 -36 9 -23 22 27 25 47 3 47 3 50 41
2 27 7 37 16 34 18 -7 36 12 29 29 -4 10 4 14 28 14 19 0 45 3 58 7 19 5 22 2
19 -13 -2 -14 -10 -18 -27 -16 -19 3 -22 0 -17 -13 3 -9 6 -30 6 -46 0 -16 5
-29 10 -29 6 0 10 16 10 35 0 19 5 35 10 35 6 0 10 -18 10 -41 l0 -40 53 3 52
3 -1 63 c-1 46 3 62 13 62 9 0 13 -17 13 -64 l0 -65 179 0 180 0 0 114 0 114
-112 -2 -112 -2 -3 -47 c-2 -29 1 -48 7 -48 6 0 11 13 11 29 0 36 13 46 61 47
l37 0 5 -50 c3 -28 4 -52 3 -53 -1 -1 -28 2 -61 6 -33 5 -62 7 -64 5 -3 -3 -4
-25 -2 -49 1 -26 -2 -45 -9 -45 -5 0 -10 18 -10 40 0 54 -27 56 -32 3 -3 -33
-6 -38 -28 -38 -23 0 -25 4 -26 47 l-1 47 41 3 41 3 0 50 0 50 -185 0 -185 0
1 -60 1 -60 -77 0 -77 0 1 60 1 60 -52 3 -53 3 0 -45 c0 -58 -18 -60 -22 -3
l-3 42 -48 3 c-32 2 -49 -1 -52 -10z m83 -32 c5 -21 -17 -66 -31 -66 -25 0
-48 65 -30 84 14 14 58 1 61 -18z m107 -6 c0 -27 -22 -39 -31 -16 -8 22 3 49
19 43 6 -2 12 -14 12 -27z m325 -5 c0 -19 -4 -35 -10 -35 -5 0 -10 16 -10 35
0 19 5 35 10 35 6 0 10 -16 10 -35z m-52 2 c4 -20 -25 -34 -40 -19 -15 15 -1
44 19 40 10 -2 19 -11 21 -21z m129 7 c3 -8 -2 -23 -11 -32 -15 -15 -17 -15
-32 0 -21 21 -11 48 16 48 11 0 23 -7 27 -16z m53 -14 c0 -16 -4 -30 -10 -30
-5 0 -10 14 -10 30 0 17 5 30 10 30 6 0 10 -13 10 -30z m64 -1 c-3 -5 -10 -7
-15 -3 -5 3 -7 10 -3 15 3 5 10 7 15 3 5 -3 7 -10 3 -15z m256 6 c0 -8 -7 -15
-15 -15 -16 0 -20 12 -8 23 11 12 23 8 23 -8z m-892 -122 c-3 -31 -34 -44 -44
-19 -9 24 3 46 26 46 17 0 21 -5 18 -27z m520 -1 c4 -28 -24 -40 -45 -19 -21
21 -9 49 19 45 15 -2 24 -11 26 -26z m-260 -5 c4 -20 -25 -34 -40 -19 -15 15
-1 44 19 40 10 -2 19 -11 21 -21z m507 -7 c-5 -8 -11 -8 -17 -2 -6 6 -7 16 -3
22 5 8 11 8 17 2 6 -6 7 -16 3 -22z m120 0 c-5 -8 -11 -8 -17 -2 -6 6 -7 16
-3 22 5 8 11 8 17 2 6 -6 7 -16 3 -22z m-55 -5 c0 -8 -4 -15 -10 -15 -5 0 -10
7 -10 15 0 8 5 15 10 15 6 0 10 -7 10 -15z m-840 -90 c13 -16 6 -35 -15 -35
-18 0 -28 17 -21 35 7 19 20 19 36 0z m527 -1 c3 -8 -2 -23 -11 -32 -15 -15
-17 -15 -33 0 -13 14 -14 20 -3 32 16 20 39 20 47 0z m563 -14 c0 -16 -4 -30
-10 -30 -5 0 -10 14 -10 30 0 17 5 30 10 30 6 0 10 -13 10 -30z m334 14 c7
-19 -2 -37 -15 -29 -12 8 -12 45 0 45 5 0 12 -7 15 -16z m-518 -5 c10 -17 -13
-36 -27 -22 -12 12 -4 33 11 33 5 0 12 -5 16 -11z m130 0 c10 -17 -13 -36 -27
-22 -12 12 -4 33 11 33 5 0 12 -5 16 -11z m124 -10 c0 -5 -4 -9 -10 -9 -5 0
-10 7 -10 16 0 8 5 12 10 9 6 -3 10 -10 10 -16z m-840 -59 c0 -11 -7 -20 -15
-20 -15 0 -21 21 -8 33 12 13 23 7 23 -13z m780 -5 c0 -8 -7 -15 -15 -15 -8 0
-15 7 -15 15 0 8 7 15 15 15 8 0 15 -7 15 -15z m-1230 -40 c15 -18 6 -45 -15
-45 -18 0 -30 24 -21 45 7 19 20 19 36 0z m520 0 c15 -18 6 -45 -15 -45 -18 0
-30 24 -21 45 7 19 20 19 36 0z m-70 -20 c0 -14 -4 -25 -10 -25 -5 0 -10 11
-10 25 0 14 5 25 10 25 6 0 10 -11 10 -25z m468 2 c4 -20 -25 -34 -40 -19 -15
15 -1 44 19 40 10 -2 19 -11 21 -21z m247 4 c7 -12 -12 -24 -25 -16 -11 7 -4
25 10 25 5 0 11 -4 15 -9z m130 -1 c3 -6 -1 -13 -10 -16 -19 -8 -30 0 -20 15
8 14 22 14 30 1z m125 -5 c0 -8 -4 -15 -9 -15 -13 0 -22 16 -14 24 11 11 23 6
23 -9z m135 6 c7 -12 -12 -24 -25 -16 -11 7 -4 25 10 25 5 0 11 -4 15 -9z
m-335 -11 c0 -5 -4 -10 -10 -10 -5 0 -10 5 -10 10 0 6 5 10 10 10 6 0 10 -4
10 -10z"></path>
<path d="M6364 1705 c-3 -7 -4 -30 -2 -51 l3 -39 66 1 67 0 -5 -56 c-3 -32 -1
-60 4 -63 12 -7 202 -12 371 -8 104 2 132 5 132 16 0 9 -14 15 -37 17 -27 2
-39 8 -41 21 -3 14 4 17 37 17 30 0 41 4 41 15 0 11 -12 15 -50 15 -27 0 -50
5 -50 10 0 6 23 10 50 10 l50 0 0 55 0 56 -57 -3 -58 -3 -3 -42 c-4 -57 -22
-55 -22 1 l0 44 -246 0 c-191 0 -247 -3 -250 -13z m61 -35 c3 -5 1 -10 -4 -10
-6 0 -11 5 -11 10 0 6 2 10 4 10 3 0 8 -4 11 -10z m65 -5 c0 -8 -4 -15 -10
-15 -5 0 -10 7 -10 15 0 8 5 15 10 15 6 0 10 -7 10 -15z m70 0 c0 -8 -4 -15
-9 -15 -13 0 -22 16 -14 24 11 11 23 6 23 -9z m132 0 c0 -5 -5 -11 -11 -13 -6
-2 -11 4 -11 13 0 9 5 15 11 13 6 -2 11 -8 11 -13z m58 0 c0 -8 -4 -15 -10
-15 -5 0 -10 7 -10 15 0 8 5 15 10 15 6 0 10 -7 10 -15z m65 6 c3 -5 1 -12 -5
-16 -5 -3 -10 1 -10 9 0 18 6 21 15 7z m-185 -66 c0 -8 -7 -15 -15 -15 -8 0
-15 7 -15 15 0 8 7 15 15 15 8 0 15 -7 15 -15z m130 0 c0 -8 -7 -15 -15 -15
-8 0 -15 7 -15 15 0 8 7 15 15 15 8 0 15 -7 15 -15z m130 0 c0 -8 -7 -15 -15
-15 -8 0 -15 7 -15 15 0 8 7 15 15 15 8 0 15 -7 15 -15z m-140 -60 c0 -19 -4
-35 -10 -35 -5 0 -10 16 -10 35 0 19 5 35 10 35 6 0 10 -16 10 -35z m-60 -1
c0 -8 -5 -12 -10 -9 -6 4 -8 11 -5 16 9 14 15 11 15 -7z m-130 -4 c0 -5 -4
-10 -10 -10 -5 0 -10 5 -10 10 0 6 5 10 10 10 6 0 10 -4 10 -10z"></path>
<path d="M2472 1633 c2 -14 15 -19 56 -21 47 -3 52 -1 52 17 0 22 -14 28 -25
11 -3 -5 -17 -10 -30 -10 -13 0 -27 5 -30 10 -10 17 -27 11 -23 -7z"></path>
<path d="M2604 1568 l1 -83 48 -3 c36 -2 49 1 53 13 9 22 -2 30 -20 16 -8 -7
-25 -11 -38 -9 -21 3 -23 8 -24 63 -1 77 -2 85 -12 85 -5 0 -8 -37 -8 -82z"></path>
<path d="M2430 1624 c0 -8 5 -12 10 -9 6 3 10 10 10 16 0 5 -4 9 -10 9 -5 0
-10 -7 -10 -16z"></path>
<path d="M2685 1631 c-6 -11 9 -23 19 -14 9 9 7 23 -3 23 -6 0 -12 -4 -16 -9z"></path>
<path d="M1956 1615 c4 -8 8 -15 10 -15 2 0 4 7 4 15 0 8 -4 15 -10 15 -5 0
-7 -7 -4 -15z"></path>
<path d="M3384 1587 c-3 -8 -4 -34 -2 -58 l3 -44 50 0 50 0 0 55 0 55 -48 3
c-34 2 -49 -1 -53 -11z m74 -40 c4 -20 -25 -34 -40 -19 -15 15 -1 44 19 40 10
-2 19 -11 21 -21z"></path>
<path d="M5076 1593 c-3 -4 -6 -28 -6 -55 0 -41 3 -48 20 -48 21 0 27 15 10
25 -15 9 -12 41 6 55 13 11 19 10 37 -9 l22 -22 -22 -19 c-30 -24 -29 -30 8
-30 l30 0 -3 53 -3 52 -46 2 c-26 1 -49 -1 -53 -4z"></path>
<path d="M915 1580 c-3 -5 -1 -10 4 -10 6 0 11 5 11 10 0 6 -2 10 -4 10 -3 0
-8 -4 -11 -10z"></path>
<path d="M1825 1580 c3 -5 8 -10 11 -10 2 0 4 5 4 10 0 6 -5 10 -11 10 -5 0
-7 -4 -4 -10z"></path>
<path d="M2690 1575 c0 -8 5 -15 10 -15 6 0 10 7 10 15 0 8 -4 15 -10 15 -5 0
-10 -7 -10 -15z"></path>
<path d="M4680 1550 c0 -22 5 -40 10 -40 6 0 10 18 10 40 0 22 -4 40 -10 40
-5 0 -10 -18 -10 -40z"></path>
<path d="M6365 1580 c-3 -5 -1 -10 4 -10 6 0 11 5 11 10 0 6 -2 10 -4 10 -3 0
-8 -4 -11 -10z"></path>
<path d="M6450 1515 c0 -8 5 -15 10 -15 6 0 10 7 10 15 0 8 -4 15 -10 15 -5 0
-10 -7 -10 -15z"></path>
<path d="M2085 1490 c3 -5 26 -10 50 -10 24 0 47 5 50 10 4 6 -15 10 -50 10
-35 0 -54 -4 -50 -10z"></path>
<path d="M2473 1465 c-7 -21 4 -32 19 -17 16 16 53 15 67 -2 8 -9 10 -33 6
-65 -4 -34 -2 -51 5 -51 6 0 9 4 5 10 -3 5 0 18 6 28 8 12 9 35 5 65 l-7 47
-50 0 c-35 0 -51 -4 -56 -15z"></path>
<path d="M4557 1473 c-3 -4 -5 -61 -5 -125 l-1 -116 52 2 c40 1 53 5 55 18 3
14 -4 17 -40 15 -46 -2 -56 11 -44 59 7 28 50 34 60 9 13 -35 22 -10 21 63 l0
77 -47 3 c-25 2 -48 -1 -51 -5z m74 -39 c17 -21 0 -49 -32 -49 -24 0 -36 23
-25 51 7 19 40 18 57 -2z"></path>
<path d="M4857 1472 l-48 -3 3 -75 c1 -47 6 -73 12 -71 6 2 10 11 8 21 -2 11
4 16 22 16 21 0 25 -6 31 -40 4 -21 4 -44 0 -50 -8 -14 -38 -13 -53 2 -9 9
-13 7 -18 -6 -9 -23 -7 -24 51 -27 l50 -3 2 117 c1 64 -1 118 -5 119 -4 2 -29
2 -55 0z m28 -51 c0 -8 -8 -19 -17 -25 -22 -13 -41 3 -32 28 8 20 49 18 49 -3z"></path>
<path d="M0 1455 c0 -9 14 -15 38 -17 25 -2 37 -8 37 -18 0 -10 -12 -16 -37
-18 -30 -3 -38 -7 -38 -22 0 -18 8 -19 123 -17 l122 2 3 52 3 52 -126 0 c-99
0 -125 -3 -125 -14z m130 -30 c0 -14 -4 -25 -10 -25 -5 0 -10 11 -10 25 0 14
5 25 10 25 6 0 10 -11 10 -25z m70 -11 c0 -16 -16 -19 -25 -4 -8 13 4 32 16
25 5 -4 9 -13 9 -21z"></path>
<path d="M524 1457 c-3 -8 -4 -32 -2 -53 l3 -39 55 0 55 0 0 49 c0 60 -22 76
-27 19 -3 -33 -6 -38 -28 -38 -22 0 -25 5 -26 34 0 36 -20 54 -30 28z"></path>
<path d="M664 1457 c-3 -8 -6 -87 -7 -178 l-2 -164 120 0 120 0 0 50 0 50
-109 2 c-60 1 -111 5 -114 8 -13 13 14 17 113 17 78 -1 107 3 111 12 3 7 2 58
-3 112 l-8 99 -77 1 -76 0 5 -31 c6 -39 -18 -65 -42 -45 -17 14 -20 46 -5 55
12 7 4 25 -11 25 -5 0 -12 -6 -15 -13z m196 -22 c17 -20 5 -45 -20 -45 -23 0
-35 22 -26 45 7 19 30 19 46 0z m-80 -30 c0 -8 -4 -15 -10 -15 -5 0 -10 7 -10
15 0 8 5 15 10 15 6 0 10 -7 10 -15z m10 -51 c0 -8 -7 -14 -15 -14 -15 0 -21
21 -9 33 10 9 24 -2 24 -19z m80 6 c0 -5 -13 -10 -30 -10 -16 0 -30 5 -30 10
0 6 14 10 30 10 17 0 30 -4 30 -10z m-135 -65 c0 -23 -4 -30 -20 -30 -21 0
-31 25 -21 51 11 28 41 12 41 -21z m120 0 c0 -11 -8 -21 -17 -23 -14 -3 -18 3
-18 23 0 20 4 26 18 23 9 -2 17 -12 17 -23z m3 -123 c4 -28 -24 -40 -45 -19
-14 13 -14 19 -3 32 18 22 44 15 48 -13z m-68 8 c0 -5 -4 -10 -10 -10 -5 0
-10 5 -10 10 0 6 5 10 10 10 6 0 10 -4 10 -10z"></path>
<path d="M914 1457 c-3 -8 -4 -32 -2 -53 l3 -39 66 1 65 0 0 -65 -1 -66 55 0
55 0 -1 65 0 65 76 0 77 0 -1 -60 -1 -60 53 -3 c50 -3 52 -2 52 22 0 35 18 33
22 -1 3 -26 6 -27 58 -28 l55 0 0 55 0 55 -66 -1 -67 0 5 58 c5 47 3 59 -10
64 -24 9 -41 -5 -27 -21 6 -8 10 -24 8 -37 -2 -17 -10 -23 -28 -23 -22 0 -25
4 -26 40 0 44 -26 58 -32 18 -5 -31 -22 -29 -22 2 0 14 -6 25 -13 25 -21 0
-27 -11 -15 -30 15 -24 3 -50 -22 -50 -26 0 -37 27 -21 52 15 24 7 27 -89 25
l-75 -2 -3 -42 c-2 -24 -7 -43 -12 -43 -5 0 -10 19 -12 43 l-3 42 -48 3 c-34
2 -49 -1 -53 -11z m76 -22 c10 -12 10 -18 0 -30 -25 -30 -61 -7 -46 30 3 8 12
15 19 15 8 0 20 -7 27 -15z m135 -15 c0 -18 -6 -26 -23 -28 -24 -4 -38 18 -28
44 3 9 15 14 28 12 17 -2 23 -10 23 -28z m260 -125 c0 -25 -4 -30 -25 -30 -16
0 -26 6 -28 18 -6 30 6 49 30 45 18 -2 23 -9 23 -33z m-265 6 c0 -11 -5 -23
-11 -27 -15 -9 -33 12 -26 30 9 23 37 20 37 -3z m388 -4 c4 -20 -25 -34 -40
-19 -15 15 -1 44 19 40 10 -2 19 -11 21 -21z"></path>
<path d="M1694 1456 c-3 -8 -4 -31 -2 -52 l3 -39 53 -5 53 -6 -3 56 c-3 48 -6
55 -25 58 -26 4 -31 -13 -7 -22 23 -9 14 -50 -12 -54 -30 -4 -51 24 -36 49 16
25 15 29 -3 29 -9 0 -18 -6 -21 -14z"></path>
<path d="M3257 1463 c-3 -4 -5 -57 -5 -116 l-1 -108 52 3 52 3 0 50 0 50 -41
3 -41 3 0 54 c0 53 -6 75 -16 58z m68 -173 c0 -32 -30 -39 -45 -10 -14 26 -4
42 23 38 16 -2 22 -10 22 -28z"></path>
<path d="M3512 1418 l3 -53 50 0 50 0 0 50 0 50 -53 3 -53 3 3 -53z m73 2 c0
-16 -6 -26 -18 -28 -19 -4 -32 20 -23 44 9 25 41 13 41 -16z"></path>
<path d="M4246 1462 c-3 -6 -1 -14 5 -17 15 -10 25 3 12 16 -7 7 -13 7 -17 1z"></path>
<path d="M4428 1464 c-11 -11 -10 -92 1 -99 5 -3 11 -2 13 2 7 15 -7 105 -14
97z"></path>
<path d="M4683 1358 l2 -113 50 0 50 0 0 110 0 110 -52 3 -52 3 2 -113z m83
40 c1 -48 1 -48 -33 -48 -32 0 -43 12 -23 25 6 4 5 13 -2 24 -17 28 -3 53 29
49 26 -3 28 -6 29 -50z m-11 -98 c0 -29 -32 -41 -41 -16 -9 24 4 48 23 44 12
-2 18 -12 18 -28z"></path>
<path d="M5066 1459 c-4 -9 -6 -34 -4 -55 l3 -39 54 0 c35 0 56 5 59 13 3 9
-6 11 -36 6 -44 -7 -52 0 -62 56 -5 26 -9 31 -14 19z"></path>
<path d="M6190 1456 c0 -8 5 -18 10 -21 6 -3 10 3 10 14 0 12 -4 21 -10 21 -5
0 -10 -6 -10 -14z"></path>
<path d="M6887 1463 c-3 -5 -5 -56 -5 -115 l-1 -108 60 0 59 0 0 75 c0 72 -1
75 -23 75 -25 0 -62 32 -50 43 3 4 21 7 40 7 23 0 33 5 33 15 0 11 -13 15 -54
15 -30 0 -57 -3 -59 -7z m63 -103 c0 -5 -7 -10 -15 -10 -8 0 -15 5 -15 10 0 6
7 10 15 10 8 0 15 -4 15 -10z"></path>
<path d="M2048 1414 c-4 -49 5 -77 16 -49 9 25 7 95 -3 95 -5 0 -11 -21 -13
-46z"></path>
<path d="M2210 1385 c0 -8 5 -15 10 -15 6 0 10 7 10 15 0 8 -4 15 -10 15 -5 0
-10 -7 -10 -15z"></path>
<path d="M2342 1383 c5 -25 95 -32 104 -8 8 21 -3 32 -18 17 -15 -15 -55 -16
-63 -2 -10 17 -27 11 -23 -7z"></path>
<path d="M2474 1320 c1 -44 4 -80 9 -80 84 -1 97 1 97 13 0 10 -13 13 -42 13
l-43 -1 -2 55 c-2 77 -2 80 -11 80 -5 0 -8 -36 -8 -80z"></path>
<path d="M4250 1384 c0 -8 5 -12 10 -9 6 3 10 10 10 16 0 5 -4 9 -10 9 -5 0
-10 -7 -10 -16z"></path>
<path d="M1865 1380 c-69 -8 -32 -25 39 -17 l54 5 -6 -64 c-3 -44 -1 -64 7
-64 12 0 19 128 8 136 -10 7 -62 9 -102 4z"></path>
<path d="M3815 1380 c-34 -4 -45 -8 -34 -14 25 -11 92 -3 97 12 2 6 0 11 -5
10 -4 0 -30 -4 -58 -8z"></path>
<path d="M3900 1383 c0 -5 5 -15 10 -23 8 -12 10 -11 10 8 0 12 -4 22 -10 22
-5 0 -10 -3 -10 -7z"></path>
<path d="M264 1336 c-3 -8 -4 -33 -2 -57 l3 -43 120 -1 120 0 0 55 0 55 -118
2 c-91 2 -119 -1 -123 -11z m84 -39 c4 -20 -25 -34 -40 -19 -15 15 -1 44 19
40 10 -2 19 -11 21 -21z m118 2 c10 -17 -13 -36 -27 -22 -12 12 -4 33 11 33 5
0 12 -5 16 -11z"></path>
<path d="M2080 1340 c-12 -8 -9 -10 13 -10 15 0 27 5 27 10 0 13 -20 13 -40 0z"></path>
<path d="M2160 1340 c0 -5 7 -10 16 -10 8 0 12 5 9 10 -3 6 -10 10 -16 10 -5
0 -9 -4 -9 -10z"></path>
<path d="M2604 1337 c-3 -8 -4 -34 -2 -58 l3 -43 55 -1 c43 0 55 3 58 17 3 14
-5 16 -45 15 -47 -2 -48 -1 -48 28 0 25 4 31 26 33 14 2 31 -4 39 -12 18 -22
27 -20 26 7 -1 19 -7 22 -54 25 -38 2 -54 -1 -58 -11z"></path>
<path d="M2997 1344 c-8 -8 -10 -98 -2 -105 2 -3 26 -3 52 1 l48 5 0 50 0 50
-45 3 c-25 2 -49 0 -53 -4z m78 -48 c0 -30 -31 -44 -51 -24 -24 24 -11 50 23
46 20 -2 28 -9 28 -22z"></path>
<path d="M3390 1340 c0 -5 7 -10 15 -10 8 0 15 5 15 10 0 6 -7 10 -15 10 -8 0
-15 -4 -15 -10z"></path>
<path d="M3450 1341 c0 -11 26 -22 34 -14 3 3 3 10 0 14 -7 12 -34 11 -34 0z"></path>
<path d="M5457 1344 c-4 -4 -7 -29 -7 -56 0 -57 9 -63 76 -53 l45 6 -3 52 -3
52 -50 3 c-28 2 -54 0 -58 -4z m81 -47 c4 -20 -25 -34 -40 -19 -15 15 -1 44
19 40 10 -2 19 -11 21 -21z"></path>
<path d="M1692 1288 c3 -47 5 -53 23 -50 29 5 32 12 12 23 -11 7 -17 22 -17
44 0 19 -5 35 -11 35 -6 0 -9 -21 -7 -52z"></path>
<path d="M1790 1306 c0 -19 -4 -38 -10 -41 -17 -10 -11 -25 10 -25 17 0 20 7
20 50 0 28 -4 50 -10 50 -5 0 -10 -15 -10 -34z"></path>
<path d="M2306 1326 c3 -9 11 -16 16 -16 13 0 5 23 -10 28 -7 2 -10 -2 -6 -12z"></path>
<path d="M3730 1307 c0 -18 -5 -38 -12 -45 -14 -14 4 -38 21 -28 14 9 15 106
1 106 -5 0 -10 -15 -10 -33z"></path>
<path d="M3900 1285 c0 -48 3 -55 19 -55 27 0 34 15 16 30 -8 7 -15 28 -15 46
0 19 -4 34 -10 34 -5 0 -10 -25 -10 -55z"></path>
<path d="M4250 1330 c0 -5 5 -10 10 -10 6 0 10 5 10 10 0 6 -4 10 -10 10 -5 0
-10 -4 -10 -10z"></path>
<path d="M4250 1280 c0 -5 5 -10 10 -10 6 0 10 5 10 10 0 6 -4 10 -10 10 -5 0
-10 -4 -10 -10z"></path>
<path d="M3590 1260 c-13 -9 -13 -11 0 -19 17 -12 30 -5 30 15 0 16 -9 18 -30
4z"></path>
<path d="M3645 1260 c-4 -6 -3 -16 3 -22 6 -6 12 -6 17 2 4 6 3 16 -3 22 -6 6
-12 6 -17 -2z"></path>
<path d="M3980 1260 c-11 -7 -12 -12 -3 -21 13 -13 33 -4 33 17 0 16 -9 18
-30 4z"></path>
<path d="M4032 1259 c5 -17 48 -25 48 -10 0 6 -4 11 -9 11 -5 0 -17 3 -27 7
-12 4 -15 2 -12 -8z"></path>
<path d="M4108 1263 c-10 -3 -18 -9 -18 -14 0 -12 37 -12 45 0 7 12 -5 19 -27
14z"></path>
<path d="M4420 1256 c0 -9 7 -16 16 -16 17 0 14 22 -4 28 -7 2 -12 -3 -12 -12z"></path>
<path d="M2133 1253 c-60 -6 -54 -23 7 -23 38 0 50 4 50 15 0 8 -3 14 -7 13
-5 -1 -27 -3 -50 -5z"></path>
<path d="M2213 1245 c5 -13 109 -13 114 0 2 7 -20 11 -57 10 -35 0 -59 -4 -57
-10z"></path>
<path d="M3438 1252 c-21 -2 -38 -7 -38 -13 0 -12 77 -12 85 0 8 13 -4 17 -47
13z"></path>
<path d="M3512 1249 c2 -6 8 -10 13 -10 5 0 11 4 13 10 2 6 -4 11 -13 11 -9 0
-15 -5 -13 -11z"></path>
<path d="M1174 1216 c-3 -7 -4 -33 -2 -57 l3 -44 120 0 120 0 0 50 0 50 -55 0
-55 0 -3 -37 c-4 -53 -22 -47 -22 7 l0 45 -50 0 c-34 0 -52 -5 -56 -14z m76
-31 c17 -20 5 -45 -20 -45 -11 0 -23 7 -26 15 -6 15 11 45 26 45 4 0 13 -7 20
-15z m135 -15 c0 -18 -6 -26 -23 -28 -13 -2 -25 3 -28 12 -10 26 4 48 28 44
17 -2 23 -10 23 -28z"></path>
<path d="M1564 1217 c-3 -8 -4 -34 -2 -58 l3 -44 55 0 55 0 0 55 0 55 -53 3
c-38 2 -54 -1 -58 -11z m74 -50 c4 -20 -25 -34 -40 -19 -15 15 -1 44 19 40 10
-2 19 -11 21 -21z"></path>
<path d="M1824 1216 c-3 -7 -4 -33 -2 -57 l3 -44 120 0 120 0 3 39 c5 58 -11
81 -17 26 l-6 -45 -45 2 c-25 1 -54 2 -65 1 -98 -3 -90 -6 -90 32 l0 35 54 -2
c46 -2 51 -1 41 12 -16 20 -108 21 -116 1z"></path>
<path d="M2864 1217 c-3 -8 -4 -34 -2 -58 l3 -44 50 0 50 0 0 55 0 55 -48 3
c-34 2 -49 -1 -53 -11z m81 -47 c0 -32 -2 -35 -30 -35 -24 0 -31 5 -33 23 -6
38 5 54 35 50 25 -3 28 -7 28 -38z"></path>
<path d="M3254 1206 c-3 -8 -4 -31 -2 -52 l3 -39 50 0 50 0 3 44 c3 45 -8 68
-27 57 -7 -5 -7 -12 1 -25 16 -26 3 -51 -27 -51 -30 0 -43 25 -27 50 11 18 7
30 -10 30 -5 0 -11 -6 -14 -14z"></path>
<path d="M4155 1168 l0 -53 55 0 55 0 3 53 3 52 -58 0 -58 0 0 -52z m83 -1 c4
-20 -25 -34 -40 -19 -15 15 -1 44 19 40 10 -2 19 -11 21 -21z"></path>
<path d="M4679 1218 c0 -2 -1 -25 -2 -53 l-2 -50 55 0 55 0 0 50 0 50 -52 3
c-29 2 -53 2 -54 0z m77 -39 c10 -17 -23 -46 -37 -32 -7 7 -9 19 -6 27 7 18
33 21 43 5z"></path>
<path d="M5582 1168 l3 -53 55 0 55 0 3 53 3 52 -61 0 -61 0 3 -52z m78 17
c13 -16 6 -35 -15 -35 -18 0 -28 17 -21 35 7 19 20 19 36 0z"></path>
<path d="M6494 1207 c-3 -8 -4 -32 -2 -53 l3 -39 55 0 55 0 0 50 0 50 -53 3
c-38 2 -54 -1 -58 -11z m60 -48 c-3 -5 -10 -7 -15 -3 -5 3 -7 10 -3 15 3 5 10
7 15 3 5 -3 7 -10 3 -15z"></path>
<path d="M6885 1208 c-2 -7 -3 -60 -2 -118 l2 -105 58 -3 c55 -3 57 -2 57 23
0 22 -4 25 -35 25 -24 0 -35 5 -35 15 0 10 11 15 35 15 35 0 35 0 35 45 0 45
0 45 -34 45 -38 0 -57 17 -35 31 8 5 26 9 42 9 17 0 27 5 27 15 0 19 -108 22
-115 3z"></path>
<path d="M134 1087 c-3 -8 -4 -34 -2 -58 l3 -44 55 0 55 0 0 55 0 55 -53 3
c-38 2 -54 -1 -58 -11z m73 -33 c8 -21 -13 -42 -28 -27 -13 13 -5 43 11 43 6
0 13 -7 17 -16z"></path>
<path d="M394 1087 c-3 -8 -4 -34 -2 -58 l3 -44 55 0 55 0 0 55 0 55 -53 3
c-38 2 -54 -1 -58 -11z"></path>
<path d="M1044 1087 c-3 -8 -4 -34 -2 -58 l3 -44 55 0 55 0 0 55 0 55 -53 3
c-38 2 -54 -1 -58 -11z m81 -42 c0 -22 -31 -33 -47 -17 -17 17 -1 44 24 40 15
-2 23 -10 23 -23z"></path>
<path d="M2604 1087 c-3 -8 -4 -34 -2 -58 l3 -44 55 0 55 0 0 55 0 55 -53 3
c-38 2 -54 -1 -58 -11z m86 -22 c22 -26 8 -50 -30 -50 -36 0 -49 18 -36 51 7
18 50 18 66 -1z"></path>
<path d="M3387 1093 c-4 -3 -7 -30 -7 -58 l0 -51 53 1 c28 1 53 5 55 8 1 4 2
30 2 57 l0 50 -48 0 c-27 0 -52 -3 -55 -7z m79 -38 c7 -18 -13 -45 -33 -45
-17 0 -27 24 -19 45 7 20 45 19 52 0z"></path>
<path d="M4289 1098 c0 -2 -1 -28 -2 -58 l-2 -55 55 0 55 0 0 55 0 55 -52 3
c-29 2 -53 2 -54 0z m79 -56 c4 -28 -24 -40 -45 -19 -21 21 -9 49 19 45 15 -2
24 -11 26 -26z"></path>
<path d="M4549 1098 c0 -2 -1 -28 -2 -58 l-1 -55 54 0 55 0 0 55 0 55 -52 3
c-29 2 -53 2 -54 0z m79 -56 c4 -28 -24 -40 -45 -19 -21 21 -9 49 19 45 15 -2
24 -11 26 -26z"></path>
<path d="M5064 1087 c-3 -8 -4 -34 -2 -58 l3 -44 55 0 55 0 0 55 0 55 -53 3
c-38 2 -54 -1 -58 -11z m84 -40 c4 -20 -25 -34 -40 -19 -15 15 -1 44 19 40 10
-2 19 -11 21 -21z"></path>
<path d="M5324 1087 c-3 -8 -4 -34 -2 -58 l3 -44 55 0 55 0 0 55 0 55 -53 3
c-38 2 -54 -1 -58 -11z m73 -33 c8 -21 -13 -42 -28 -27 -13 13 -5 43 11 43 6
0 13 -7 17 -16z"></path>
<path d="M5844 1087 c-3 -8 -4 -34 -2 -58 l3 -44 55 0 55 0 0 55 0 55 -53 3
c-38 2 -54 -1 -58 -11z m82 -32 c7 -18 -13 -45 -33 -45 -17 0 -27 24 -19 45 7
20 45 19 52 0z"></path>
<path d="M784 927 c-3 -8 -4 -34 -2 -57 l3 -43 55 0 55 0 0 54 0 54 -53 3
c-38 2 -54 -1 -58 -11z m74 -40 c4 -20 -25 -34 -40 -19 -15 15 -1 44 19 40 10
-2 19 -11 21 -21z"></path>
<path d="M1434 837 c-3 -8 -4 -34 -2 -58 l3 -44 55 0 55 0 0 55 0 55 -53 3
c-38 2 -54 -1 -58 -11z m76 -32 c15 -18 5 -35 -20 -35 -22 0 -34 15 -26 35 7
19 30 19 46 0z"></path>
<path d="M3770 786 l0 -56 56 0 55 0 -3 53 -3 52 -52 3 -53 3 0 -55z m78 1 c4
-20 -25 -34 -40 -19 -15 15 -1 44 19 40 10 -2 19 -11 21 -21z"></path>
<path d="M6754 807 c-3 -8 -4 -34 -2 -58 l3 -44 55 0 55 0 0 55 0 55 -53 3
c-38 2 -54 -1 -58 -11z"></path>
<path d="M2734 776 c-3 -8 -4 -31 -2 -52 l3 -39 53 -5 c30 -3 55 -3 56 0 1 3
1 29 -2 58 l-4 52 -49 0 c-33 0 -51 -5 -55 -14z m82 -31 c7 -18 -13 -45 -33
-45 -17 0 -27 24 -19 45 7 20 45 19 52 0z"></path>
<path d="M1954 637 c-3 -8 -4 -34 -2 -58 l3 -44 55 0 55 0 0 55 0 55 -53 3
c-38 2 -54 -1 -58 -11z m91 -47 c0 -33 -2 -35 -35 -35 -29 0 -36 4 -38 23 -6
40 5 54 40 50 30 -3 33 -6 33 -38z"></path>
<path d="M5324 607 c-3 -8 -4 -34 -2 -58 l3 -44 55 0 55 0 0 55 0 55 -53 3
c-38 2 -54 -1 -58 -11z m74 -50 c2 -10 -3 -17 -12 -17 -18 0 -29 16 -21 31 9
14 29 6 33 -14z"></path>
<path d="M4552 511 l3 -56 50 0 50 0 0 54 0 54 -53 2 -53 2 3 -56z m85 13 c9
-24 -10 -49 -38 -49 -24 0 -36 23 -25 51 7 19 55 18 63 -2z"></path>
<path d="M3124 517 c-3 -8 -4 -32 -2 -53 l3 -39 53 -3 53 -3 -3 53 -3 53 -48
3 c-34 2 -49 -1 -53 -11z m80 -30 c13 -21 -15 -53 -38 -44 -19 8 -21 38 -4 55
15 15 28 11 42 -11z"></path>
<path d="M264 481 c-2 -2 -4 -29 -4 -58 l0 -54 58 3 57 3 0 54 0 53 -53 2
c-30 0 -56 -1 -58 -3z"></path>
<path d="M5972 438 l3 -53 55 0 55 0 3 53 3 52 -61 0 -61 0 3 -52z m83 -3 c0
-22 -31 -33 -47 -17 -17 17 -1 44 24 40 15 -2 23 -10 23 -23z"></path>
<path d="M1044 366 c-8 -20 0 -101 9 -98 4 1 30 2 57 2 l50 0 0 55 0 55 -55 0
c-38 0 -57 -4 -61 -14z m73 -32 c8 -21 -13 -42 -28 -27 -13 13 -5 43 11 43 6
0 13 -7 17 -16z"></path>
<path d="M1694 287 c-3 -8 -4 -34 -2 -58 l3 -44 55 0 55 0 0 55 0 55 -53 3
c-38 2 -54 -1 -58 -11z m91 -47 c0 -33 -2 -35 -35 -35 -29 0 -36 4 -38 23 -6
40 5 54 40 50 30 -3 33 -6 33 -38z"></path>
<path d="M2344 136 c-3 -8 -4 -31 -2 -52 3 -39 3 -39 51 -42 36 -2 49 1 53 13
9 22 -2 30 -20 16 -8 -7 -25 -11 -38 -9 -18 2 -23 9 -23 33 0 24 5 31 24 33
13 2 28 -1 34 -7 17 -17 27 -13 27 9 0 17 -7 20 -50 20 -34 0 -52 -5 -56 -14z"></path>
</g>
</svg>